<svg xmlns="http://www.w3.org/2000/svg" viewBox="0 0 500 200"><g stroke="#fff" opacity=".2"><g fill="#fff"><path stroke-width=".3" d="M237.9 159a24.8 24.8 0 1 1 13-47.9 24.8 24.8 0 0 1-13 47.8m38-15.2l.7-3.2 7.7.7.4-4.9-7.6-.7c0-2.2-.2-4.4-.5-6.5l7.4-2-1.3-4.6-7.4 2c-.7-2.2-1.6-4.1-2.7-6l6.3-4.4-2.8-4-6.3 4.4a32.6 32.6 0 0 0-4.6-4.7l4.5-6.2-4-2.8-4.4 6.2c-1.9-1-3.8-2-6-2.8l2-7.4-4.6-1.3-2 7.4c-2.2-.4-4.4-.6-6.5-.6l-.7-7.6-4.8.4.6 7.6a45 45 0 0 0-6.3 1.7l-3.2-7-4.4 2 3.2 7c-2 1-3.7 2.3-5.4 3.7l-5.4-5.4-3.4 3.4 5.4 5.4a32.4 32.4 0 0 0-3.8 5.4l-7-3.3-2 4.4 7 3.3a33 33 0 0 0-1.8 6.3l-7.7-.7-.4 4.8 7.6.7c0 2.2.2 4.4.6 6.5l-7.5 2 1.3 4.7 7.4-2c.7 2 1.6 4 2.7 6l-6.3 4.3 2.8 4 6.3-4.4c1.3 1.7 2.9 3.3 4.6 4.7l-4.5 6.3 4 2.8 4.4-6.3a41 41 0 0 0 6 2.8l-2 7.4 4.6 1.3 2-7.4c2.2.4 4.4.6 6.5.6l.7 7.6 4.8-.4-.6-7.6a28 28 0 0 0 6.3-1.7l3.2 7 4.4-2-3.2-7c2-1 3.7-2.3 5.4-3.7l5.4 5.4 3.4-3.4-5.4-5.4c1.5-1.6 2.7-3.4 3.8-5.4l7 3.3 2-4.4-6.9-3.2 1-3.1"/><path stroke-miterlimit="10" stroke-width="1.8" d="M216.4 127.5l25.3 6.9m-5 28.6l7-25.2m1-5.8l7-25.2m-4.7 29.1l25.3 6.9"/><path stroke-width=".3" d="M247.8 136a3.5 3.5 0 1 0-6.8-2 3.5 3.5 0 0 0 6.8 2"/></g><g fill="#fff" stroke-width=".3"><path d="M182.5 156.3h-1.3a11 11 0 1 1 1.3 0m8.7-2.4a12.3 12.3 0 1 0-10.1 3.6 12.5 12.5 0 0 0 10.1-3.6"/><path d="M180.7 161.2a16 16 0 1 1 3.5-31.8 16 16 0 0 1-3.5 31.8zm23.7-12.7l-4.8-2.3a18.3 18.3 0 0 0 0-2.3l4.7-2.3c.4-.2.3-.8-.1-.8l-5.3-.5-.8-2.2 3.6-3.8c.4-.3 0-.8-.4-.7l-5 1.3-1.6-1.7 2.1-4.8c.2-.4-.3-.8-.6-.6l-4.4 3-2-1 .4-5.3c0-.5-.6-.7-.8-.3l-3 4.3-2.1-.4h-.2l-1.5-5c-.1-.5-.7-.5-.9 0l-1.3 5-2.3.5-3.1-4.3c-.3-.3-.8-.1-.8.4l.4 5.2-2 1.2-4.3-3c-.4-.2-.9.2-.7.6l2.3 4.8-1.5 1.8-5.1-1.3c-.5 0-.8.4-.4.8l3.7 3.7a17 17 0 0 0-.8 2.2l-5.2.5c-.5 0-.6.7-.2.9l4.8 2.2a17.7 17.7 0 0 0 0 2.3l-4.7 2.4c-.4.2-.3.8.2.8l5.2.5.8 2.1-3.6 3.8c-.3.3 0 .9.4.8l5.1-1.4 1.5 1.7-2 4.9c-.3.4.2.8.6.5l4.3-3 2 1.1-.3 5.3c0 .4.5.6.8.3l3-4.3 2 .3h.2l1.5 5c.2.5.8.5.9 0l1.4-5 2.2-.4 3.1 4.2c.3.4.9.1.8-.3l-.4-5.3 2-1.1 4.4 2.9c.3.3.8-.2.6-.6L195 157c.5-.5 1-1 1.4-1.7l5.2 1.2c.4.1.7-.4.4-.7l-3.7-3.8.7-2.1 5.3-.6c.4 0 .5-.6 0-.8"/></g><path fill="#fff" stroke-width=".3" d="M207.1 172.4a4 4 0 1 1-3.7-7 4 4 0 0 1 3.7 7m6.4-9l-2.3.6a7.6 7.6 0 0 0-2.3-1.8l.3-2.5c0-.4-.2-1.1-.7-1.3-.6-.1-1.2.4-1.3.7l-1.2 2.2c-1 0-2 0-3 .3l-1.5-2c-.3-.3-.9-.6-1.4-.4-.5.3-.5 1-.4 1.5l.7 2.3c-.8.7-1.4 1.4-1.9 2.3l-2.4-.3c-.5 0-1.2.2-1.3.7-.2.6.3 1.2.7 1.3l2.1 1.2c0 1 0 2 .3 2.9l-1.9 1.6c-.4.3-.7.9-.4 1.4.2.5 1 .5 1.4.4l2.3-.7c.7.8 1.4 1.4 2.3 1.9l-.2 2.4c0 .5.1 1.2.7 1.3.5.2 1-.3 1.3-.7l1.1-2.1c1 0 2 0 3-.3l1.5 1.9c.3.3 1 .7 1.4.4.5-.2.6-1 .4-1.4l-.7-2.3c.8-.7 1.5-1.4 2-2.3l2.4.2c.4 0 1-.1 1.3-.7.1-.5-.4-1-.7-1.3l-2.2-1.1c.1-1 0-2-.3-3l2-1.5c.3-.3.6-1 .4-1.4-.3-.5-1-.6-1.5-.5"/><path fill="#fff" stroke-miterlimit="10" stroke-width=".9" d="M195.8 91.9a8.2 8.2 0 1 0-16.4 0 8.2 8.2 0 0 0 16.4 0z"/><g fill="#fff" stroke-width=".3"><path d="M187.6 109.8a18 18 0 1 1 0-35.9 18 18 0 0 1 0 36m22-16.3l8-2.3-.3-3.5-.3-1.7c-.2-1.1-.5-2.3-1-3.4l-8.2.6a22 22 0 0 0-2.4-4.1l4.7-7-2.5-2.4-1.3-1.1c-1-.8-2-1.5-3-2l-6 5.7c-1.4-.7-2.8-1.3-4.4-1.6l-.9-8.3c-1.1-.2-2.3-.3-3.5-.3h-1.7l-3.6.3-.8 8.3c-1.6.3-3 .9-4.5 1.6l-6-5.8-2.9 2-1.3 1.2c-.9.7-1.7 1.6-2.5 2.5l4.6 6.9a22 22 0 0 0-2.4 4l-8.2-.5-1 3.4-.2 1.7-.4 3.5 8 2.3c.1 1.7.4 3.2.8 4.7l-6.7 5 1.5 3.1.9 1.5 2 3 7.6-3.5c1.1 1.2 2.3 2.2 3.6 3l-2 8.2 3.3 1.5 1.6.5 3.4 1 3.7-7.5a22.3 22.3 0 0 0 4.7 0l3.7 7.5 3.4-1 1.6-.5 3.2-1.5-2-8.1c1.3-.9 2.5-2 3.6-3l7.6 3.3 2-2.9 1-1.5 1.4-3.2-6.7-4.9c.4-1.5.7-3 .8-4.7"/><path d="M195.8 91.9a8.2 8.2 0 1 0-16.4 0 8.2 8.2 0 0 0 16.4 0"/></g><path fill="#fff" stroke-width=".3" d="M171.3 60c-.3 0-.5 0-.7-.2l.6-1c2 .9 4.3.2 5.5-1.5l1 .5c-1.4 2-4 3-6.4 2.3m-3.9-7.3l.3-.6 1 .5c-1 2-.3 4.3 1.4 5.6l-.5 1c-2-1.5-3-4-2.2-6.5m7.2-3.8l.6.2-.5 1c-2-.8-4.2-.2-5.5 1.5l-1-.6c1.5-2 4-2.8 6.4-2.1m3.9 7.2l-.2.6-1-.6c.7-2 .1-4.1-1.6-5.4l.6-1c2 1.4 3 4 2.2 6.4m1 3.5a8.3 8.3 0 0 0 1.5-3l2.6.4a11.1 11.1 0 0 0 .3-2.5l-2.6-.3c0-1.2-.3-2.2-.8-3.2l2.3-1.5a11 11 0 0 0-1.4-2L179 49a8.3 8.3 0 0 0-2.6-2l.8-2.6a11.1 11.1 0 0 0-2.4-.7l-.8 2.6a7 7 0 0 0-3.2.2l-1-2.5a11.1 11.1 0 0 0-2.4 1l1 2.4c-.9.6-1.7 1.4-2.3 2.3l-2.4-1.3a11.1 11.1 0 0 0-1.2 2.3l2.4 1.2v.2c-.3 1-.4 2-.4 3l-2.6.6a11.1 11.1 0 0 0 .6 2.5l2.6-.6c.4 1 1 2 1.8 2.7l-1.6 2.2a11.1 11.1 0 0 0 2 1.5l1.6-2.2a8.3 8.3 0 0 0 3.1 1l.2 2.7a11.1 11.1 0 0 0 2.5-.2l-.2-2.6c1.1-.3 2.1-.7 3-1.3l1.9 2a11.1 11.1 0 0 0 1.8-1.8z"/><g fill="#fff"><path stroke-width=".3" d="M237.9 88.8a13.3 13.3 0 1 1-5-26.3 13.3 13.3 0 0 1 5 26.3m12.7-16.6v-.4l4.5-2a20.7 20.7 0 0 0-1.9-4.3l-4.6 2a15.5 15.5 0 0 0-4.2-4.4l2.3-4.5a20.8 20.8 0 0 0-4.3-2l-2.2 4.4c-1.9-.6-4-.8-6-.7l-1.2-4.8a20.7 20.7 0 0 0-4.6 1l1.2 5c-2 .7-3.6 1.9-5 3.3l-4-3a20.8 20.8 0 0 0-2.9 3.8l4 3c-.9 1.8-1.5 3.7-1.7 5.8l-5 .3a20.7 20.7 0 0 0 .3 4.7l5-.3.1.4c.5 1.9 1.3 3.6 2.4 5.2L219 88a20.7 20.7 0 0 0 3.3 3.4l3.6-3.4c1.6 1.2 3.5 2.2 5.4 2.7l-.5 5a20.7 20.7 0 0 0 4.7.5l.5-5a15.6 15.6 0 0 0 6-1.4l2.7 4.1a20.7 20.7 0 0 0 3.9-2.6l-2.7-4c1.5-1.5 2.7-3.2 3.6-5l4.7 1.4a20.8 20.8 0 0 0 1.4-4.5l-4.8-1.4c.3-1.9.2-3.8-.3-5.7"/><path stroke-miterlimit="10" stroke-width=".9" d="M241.2 74.5a6 6 0 1 0-11.6 2.2 6 6 0 0 0 11.6-2.2z"/><path stroke-width=".3" d="M228.6 82.8a1.5 1.5 0 1 0 2.6 1.8 1.5 1.5 0 0 0-2.6-1.8m6.5-17.1a1.5 1.5 0 1 0-3 .6 1.5 1.5 0 0 0 3-.6m-6.9 3.1a1.5 1.5 0 1 0-1.7 2.6 1.5 1.5 0 0 0 1.7-2.6m-2.7 7.2a1.5 1.5 0 1 0 .6 3 1.5 1.5 0 0 0-.6-3m10.2 9.5a1.5 1.5 0 1 0 3-.5 1.5 1.5 0 0 0-3 .5m6.9-3.1a1.5 1.5 0 1 0 1.7-2.5 1.5 1.5 0 0 0-1.7 2.5m2.7-7a1.5 1.5 0 1 0-.6-3 1.5 1.5 0 0 0 .6 3m-3.1-7a1.5 1.5 0 1 0-2.5-1.7 1.5 1.5 0 0 0 2.5 1.7"/></g><g fill="#fff"><path stroke-width=".3" d="M270.7 81.3a7.6 7.6 0 1 1-3.3-14.8 7.6 7.6 0 0 1 3.3 14.8m9-9.8v-.2l3.2-1.4a14.5 14.5 0 0 0-1.3-3l-3.2 1.3a11 11 0 0 0-3-3.1l1.7-3.1a14.5 14.5 0 0 0-3-1.6l-1.6 3.2a9.8 9.8 0 0 0-4.2-.6l-.7-3.4a14.6 14.6 0 0 0-3.3.7l.8 3.4a9.7 9.7 0 0 0-3.6 2.3l-2.8-2.1a14.6 14.6 0 0 0-2 2.6l2.8 2.1a11 11 0 0 0-1.3 4l-3.5.2a14.5 14.5 0 0 0 .1 3.3l3.5-.1a10.3 10.3 0 0 0 1.7 4l-2.6 2.3a14.5 14.5 0 0 0 2.2 2.4l2.6-2.4a11 11 0 0 0 3.8 2l-.5 3.5a14.6 14.6 0 0 0 3.3.4l.4-3.4a10.9 10.9 0 0 0 4.2-1l2 3A14.5 14.5 0 0 0 278 85l-1.9-3c1.1-.9 2-2 2.6-3.3l3.4 1a14.6 14.6 0 0 0 1-3.1l-3.4-1c.2-1.4.2-2.7-.1-4"/><path stroke-width=".3" d="M275.2 73.9a6.1 6.1 0 1 0-12.3 0 6.1 6.1 0 0 0 12.3 0"/><path stroke-miterlimit="10" stroke-width="1.2" d="M269 68v-2.4m0 16.4v-2.4m5.8-5.8h2.4m-16.3 0h2.4"/></g><g fill="#fff"><path stroke-width=".3" d="M245 48.1a11.7 11.7 0 1 1 18.4-14.3A11.7 11.7 0 0 1 245 48m22.1 6.3l-2-4a18 18 0 0 0 2.7-4.9l4.5-.3c.9-.1 2-.6 2.2-1.7.1-1-1-2-1.7-2.2l-4.4-1.4c-.1-1.8-.6-3.6-1.4-5.3l3-3.5c.6-.7 1-1.9.3-2.7-.6-.9-2-.7-2.7-.4l-4.1 2.1a17 17 0 0 0-4.7-2.7l-.4-4.6c0-.8-.6-2-1.7-2.2-1 0-2 1-2.2 1.7l-1.4 4.4c-1.8.2-3.6.6-5.3 1.5l-3.5-3c-.6-.6-1.8-1-2.7-.4-.8.7-.7 2-.3 2.7l2 4.2c-1.2 1.4-2.1 3-2.7 4.7l-4.6.3c-.8.1-2 .7-2.1 1.7-.2 1.1 1 2 1.7 2.2l4.3 1.4c.1 1.9.6 3.7 1.4 5.4l-3 3.4c-.5.7-1 1.9-.3 2.7.7.9 2.1.7 2.8.4l4-2c1.4 1.2 3 2.1 4.8 2.7l.4 4.5c0 .9.6 2 1.7 2.2 1 .1 2-1 2.1-1.7l1.5-4.3c1.8-.2 3.6-.6 5.3-1.5l3.4 3c.7.5 2 1 2.8.3.8-.6.6-2 .3-2.7"/><path stroke-miterlimit="10" stroke-width=".6" d="M255 40.3l9.7-7.6M254 40l-1.7-12.3m1.4 12.3l-5.8-10.8m5.5 11.1l-9.1-8.3m8.9 8.6L241.8 36m11.3 5l-12.3-.5m14.2 1.2l9.1 8.2m-8.9-8.5l11.4 4.6m-11.4-5l12.3.4m-12.3-.8l11.7-3.8"/><path stroke-width=".3" d="M260.1 31.8c0-.6-.4 0 0 0m-4.1-.1c0 .7.2-1.3 0 0m9.2 9.4c.1.2.4.1 0 0"/><path stroke-miterlimit="10" stroke-width=".6" d="M253.2 41.3L241.5 45m11.9-3.4l-9.7 7.6m9.9-7.3l-6.5 10.4M254 42l-2.6 12m2.9-12l1.7 12.2m-1.3-12.3l5.7 10.8M254.7 40l6.6-10.4M254.4 40l2.6-12"/><path stroke-width=".3" d="M254.4 42.6c.7-.2 0-.1 0 0"/><path stroke-miterlimit="10" stroke-width=".3" d="M255.2 42.3a1.7 1.7 0 1 0-2-2.7 1.7 1.7 0 0 0 2 2.7z"/></g><path fill="#fff" stroke-width=".3" d="M298.8 65.6a19 19 0 1 1 0-38.2 19 19 0 0 1 0 38.2m24.5-21.3l-2.7-9.1a.8.8 0 0 0-1-.6l-2.8.8c-1-1.5-2-2.9-3.3-4l1.4-2.7c.2-.4 0-.9-.3-1l-8.3-4.7a.8.8 0 0 0-1.2.4l-1.4 2.5a21 21 0 0 0-5.2-.5l-.9-2.9a.8.8 0 0 0-1-.5l-9 2.6c-.5.1-.8.6-.6 1l.8 2.9c-1.6.9-3 2-4.2 3.3l-2.6-1.4a.8.8 0 0 0-1 .3l-4.6 8.3c-.2.4-.1.9.3 1.1l2.6 1.4a21 21 0 0 0-.6 5.3l-2.8.8c-.5.1-.7.6-.6 1l2.7 9.1c0 .5.5.7 1 .6l2.8-.8c1 1.5 2 2.9 3.3 4.1l-1.4 2.6c-.2.4 0 .9.3 1.1l8.3 4.6c.4.2 1 0 1.1-.3L294 67c1.7.4 3.4.6 5.2.6l.8 2.8c.2.4.6.7 1 .5l9.2-2.6c.4-.1.7-.6.5-1l-.8-2.8c1.5-1 3-2 4.1-3.4l2.6 1.5c.4.2 1 0 1.1-.4l4.6-8.3c.2-.4 0-.9-.3-1l-2.6-1.5c.4-1.7.6-3.5.6-5.3l2.8-.8c.5-.1.7-.6.6-1"/><path fill="none" stroke-miterlimit="10" stroke-width="1.5" d="M312.5 46.5a13.8 13.8 0 1 1-27.5 0 13.8 13.8 0 0 1 27.5 0z"/><path fill="none" stroke-miterlimit="10" stroke-width="1.5" d="M315.5 46.5a16.8 16.8 0 1 1-33.5 0 16.8 16.8 0 0 1 33.5 0z"/><path fill="#fff" stroke-miterlimit="10" stroke-width="2.7" d="M288.9 36.6l-4.3-4.3m-5.8 14.2h6m14-14v-6m0 40v-6m14.2.1l-4.3-4.2m0-19.8l4.2-4.3m-28.3 28.3l4.3-4.2"/><path fill="#fff" stroke-width=".3" d="M276.8 25.2l.7-5 4.8.8a5 5 0 0 1-5.5 4.2m-4.8-5.8l4.8.8-.8 5a5.4 5.4 0 0 1-4-5.8m5.6-4.6l-.7 4.6-4.8-.7c.6-2.5 3-4.1 5.5-4m4.8 5.6l-4.8-.8.8-4.6c2.5.6 4.2 2.8 4 5.4m4.2 2.7l-1.8-1.3a7.9 7.9 0 0 0 .2-1l2.1-.7c.2 0 .2-.3 0-.4l-2.2-.6-.2-1 1.8-1.4c.2-.1 0-.4-.1-.4l-2.3.3a2 2 0 0 0-.6-1l1.3-1.9c0-.1 0-.3-.3-.3l-2 1-.9-.7.5-2.2c0-.2-.2-.3-.3-.2l-1.6 1.6-1-.3-.3-2.2c0-.2-.3-.3-.4-.1l-1 2h-1l-1-2c-.1-.1-.4 0-.4.1l-.2 2.3c-.3 0-.7.2-1 .4l-1.7-1.6c-.1-.1-.3 0-.3.2l.6 2.2-.8.7-2.1-.8c-.2-.1-.4 0-.2.3l1.3 1.8-.6 1-2.2-.2c-.2 0-.3.3-.1.4l1.8 1.3a8 8 0 0 0-.2 1l-2.1.7c-.2 0-.2.4 0 .4l2.2.6.2 1-1.8 1.4c-.2.1 0 .4.1.4l2.3-.2.5.9-1.2 1.9c0 .2 0 .4.3.3l2-1 .9.7-.5 2.2c0 .2.2.3.3.2l1.6-1.6 1 .3.3 2.3c0 .2.3.2.4 0l1-2h1l1 2c.1.1.4 0 .4-.1l.2-2.3c.3 0 .7-.2 1-.4l1.7 1.6c.1.1.3 0 .3-.2l-.6-2.2.8-.7 2.1.9c.2 0 .4-.2.2-.3l-1.3-1.9.6-1 2.2.2c.2 0 .3-.3.1-.4m.1 79a4 4 0 1 1-2.7-7.4 4 4 0 0 1 2.7 7.4m7.6-8l-2.4.3a7.6 7.6 0 0 0-2-2.1l.6-2.4c.1-.5 0-1.2-.5-1.4-.5-.3-1.1.2-1.4.5l-1.4 2c-1-.3-2-.3-3-.2l-1.2-2.1c-.3-.4-.8-.8-1.3-.6-.6.2-.7 1-.7 1.3l.4 2.5c-.9.5-1.6 1.1-2.2 1.9l-2.4-.6c-.4 0-1.1 0-1.4.5-.2.5.2 1.2.5 1.4l2 1.5c-.2 1-.3 1.9-.1 2.9l-2.2 1.3c-.3.2-.8.8-.6 1.3.2.5 1 .7 1.4.6l2.4-.3c.5.8 1.2 1.6 2 2.1l-.6 2.4c-.1.5 0 1.2.5 1.4.5.3 1.1-.2 1.4-.5l1.4-2c1 .3 2 .4 3 .2l1.2 2.1c.3.4.8.8 1.3.6.6-.2.7-1 .7-1.3l-.4-2.4a7 7 0 0 0 2.2-2l2.4.6c.4.1 1.1 0 1.4-.5.2-.5-.2-1.2-.5-1.4l-2-1.4c.3-1 .3-2 .2-3l2-1.3c.4-.2.9-.8.7-1.3-.2-.5-1-.7-1.4-.6m32.1-2.8a7.1 7.1 0 1 1-4.8-13.4 7.1 7.1 0 0 1 4.8 13.4M337.5 78l-3.6.5c-.8-1.3-1.8-2.4-3-3.2l.9-3.6c.1-.7 0-1.7-.8-2.1-.7-.4-1.7.3-2 .7l-2.3 3c-1.4-.3-2.8-.4-4.3-.2l-2-3.2c-.3-.6-1.2-1.2-2-1-.8.4-1 1.5-1 2l.6 3.8a9.8 9.8 0 0 0-3.2 2.9l-3.6-.9c-.7-.1-1.8 0-2.1.8-.4.7.2 1.7.7 2l3 2.3c-.3 1.4-.4 2.9-.2 4.3l-3.2 2c-.6.3-1.2 1.2-1 2 .3.8 1.5 1 2 1l3.7-.6c.8 1.3 1.8 2.4 3 3.2l-1 3.6c0 .7 0 1.8.8 2.1.8.4 1.8-.2 2.1-.7l2.2-3c1.4.4 3 .5 4.4.3l2 3.1c.3.6 1.1 1.2 2 1 .8-.3 1-1.5.9-2l-.5-3.7c1.3-.8 2.4-1.8 3.3-3l3.5 1c.7 0 1.7 0 2.1-.8.4-.8-.3-1.8-.7-2.1l-3-2.2c.4-1.4.5-3 .2-4.4l3.2-2c.6-.3 1.2-1.1 1-2-.4-.8-1.5-1-2-.9"/><path fill="none" stroke-miterlimit="10" stroke-width="1.2" d="M287.2 110.1a12 12 0 0 1-13.7-7.6 12 12 0 0 1 5.6-14.6l.6-.3L315.5 69a17.6 17.6 0 0 1 25.4 9.2c3.3 9-1.6 19-10.8 22.4 0 0-2.2.7-3 .8l-39.3 8.6z"/><g fill="#fff" stroke-width=".3"><path d="M306.3 143.5a13.3 13.3 0 1 1-5-26.2 13.3 13.3 0 0 1 5 26.2M319 127v-.3l4.5-2a20.7 20.7 0 0 0-1.9-4.3l-4.6 2a15.5 15.5 0 0 0-4.2-4.4l2.3-4.5a20.8 20.8 0 0 0-4.2-2.1l-2.3 4.5c-1.9-.6-4-.9-6-.7l-1.2-4.9a20.7 20.7 0 0 0-4.6 1.1l1.2 4.9c-2 .8-3.6 2-5 3.4l-4-3a20.8 20.8 0 0 0-2.9 3.8l4 3c-.9 1.7-1.5 3.7-1.7 5.8l-5 .3a20.7 20.7 0 0 0 .3 4.7l5-.4.1.4c.5 2 1.3 3.7 2.4 5.2l-3.7 3.5a20.7 20.7 0 0 0 3.3 3.4l3.6-3.5c1.6 1.3 3.5 2.2 5.4 2.8l-.5 4.9a20.7 20.7 0 0 0 4.7.5l.5-4.9a15.5 15.5 0 0 0 6-1.4l2.7 4.1a20.7 20.7 0 0 0 4-2.6l-2.8-4.1c1.5-1.4 2.7-3 3.6-5l4.8 1.5a20.8 20.8 0 0 0 1.3-4.6l-4.8-1.4c.3-1.8.2-3.8-.3-5.7"/><path d="M303.8 125h-1a5.5 5.5 0 1 0 1 0m0 11.8a6.4 6.4 0 1 1 0-12.8 6.4 6.4 0 0 1 0 12.8m-.3-16.3a1.5 1.5 0 1 0-3 .6 1.5 1.5 0 0 0 3-.6m-6.9 3.1a1.5 1.5 0 1 0-1.7 2.5 1.5 1.5 0 0 0 1.7-2.5m-2.6 7.1a1.5 1.5 0 1 0 .5 3 1.5 1.5 0 0 0-.6-3m3.1 6.9a1.5 1.5 0 1 0 2.6 1.7 1.5 1.5 0 0 0-2.6-1.7m7 2.7a1.5 1.5 0 1 0 3.1-.6 1.5 1.5 0 0 0-3 .6m6.9-3.1a1.5 1.5 0 1 0 1.7-2.6 1.5 1.5 0 0 0-1.7 2.6m2.7-7.1a1.5 1.5 0 1 0-.6-3 1.5 1.5 0 0 0 .6 3m-3.1-6.9a1.5 1.5 0 1 0-2.5-1.7 1.5 1.5 0 0 0 2.5 1.7"/></g><path fill="#fff" stroke-width=".3" d="M300.4 177l-1.2 1.2-6.4-7.5 8.6 4.8-1 1.4m-8.5 4.3l-.2-9.9 3.6 9.2c-1.1.4-2.3.6-3.4.7m-4-.5l3.2-9.4.2 9.9c-1.2 0-2.3-.2-3.4-.5m-3.6-2l6.2-7.6-3.2 9.4c-1-.4-2-1-3-1.7m-.8-17.9l6.5 7.5-8.6-4.8a11.7 11.7 0 0 1 2.1-2.7m7.4-3l.2 9.8-3.6-9.2c1.1-.4 2.3-.6 3.4-.6m4 .5l-3.2 9.3-.2-9.8c1.2 0 2.3.2 3.4.5m3.6 2l-6.2 7.6 3.2-9.4c1 .4 2 1 3 1.7m-5.3 9.2l9.7-1.9c.2 1.2.2 2.3 0 3.5zm0 .6l9.7 1.6a11 11 0 0 1-1.2 3.3l-8.6-4.8m-.8.9l6.5 7.5c-1 .7-2 1.3-3 1.7l-3.5-9.2m-2.6-1v.1l-8.5 5c-.5-1-1-2-1.2-3.2zm0-1.1l-9.8-1.6a11 11 0 0 1 1.2-3.3l8.6 4.8m.7-1l-6.4-7.4 3-1.8 3.5 9.3m2.6.9l8.5-5c.5 1 1 2 1.2 3.2l-9.7 1.8m-1.5 1.7h-.4l-.3-.1-.3-.3-.2-.3v-.7l.2-.3.2-.3.4-.1h.4l.3.1.3.2.2.4v.7l-.2.3-.3.3zm7.4-10c.9.9 1.6 1.7 2.3 2.7l-8.5 5zm-19.2 7.4l9.8 1.6-9.7 1.8a9.7 9.7 0 0 1 0-3.4m3.9 10.4c-.9-.8-1.7-1.7-2.3-2.6l8.5-5zm28-11c-.1-1-1.4-1.6-2.2-1.7l-4.5-.4a16 16 0 0 0-2.6-4.8l2.1-4c.4-.9.6-2.1-.2-2.8-.9-.7-2.2-.2-2.8.3l-3.6 2.9c-1.6-.9-3.4-1.4-5.1-1.6l-1.4-4.4c-.3-.8-1-1.8-2.2-1.7-1 0-1.6 1.4-1.7 2.1l-.4 4.6c-1.8.5-3.4 1.4-4.8 2.6l-4.1-2.2c-.8-.4-2-.6-2.8.3-.6.8-.2 2.2.3 2.7l3 3.6c-1 1.6-1.5 3.4-1.7 5.2l-4.3 1.3c-.9.3-1.9 1.1-1.8 2.2.1 1 1.4 1.7 2.2 1.7l4.5.5c.5 1.7 1.4 3.4 2.6 4.8l-2.1 4c-.4.8-.6 2.1.2 2.8.9.7 2.2.2 2.8-.3l3.5-2.9c1.7 1 3.4 1.5 5.3 1.6l1.3 4.4c.3.8 1 1.8 2.1 1.7 1.1 0 1.7-1.4 1.8-2.1l.4-4.5c1.8-.6 3.4-1.5 4.9-2.7l4 2.2c.8.4 2 .5 2.8-.3.6-.8.1-2.2-.3-2.8l-3-3.5a11 11 0 0 0 1.6-5.2l4.4-1.4c.8-.3 1.9-1 1.8-2.1M187.6 44.4l-.9-4.8-6.3 3.1c-.5.2-.4 1 .1 1zm3.1 6.3l-2.4-4.2-5 5c-.3.4 0 1.1.6 1z"/><path fill="none" stroke-miterlimit="10" stroke-width="1.5" d="M221.2 38.5a14.2 14.2 0 1 0-28.4 0 14.2 14.2 0 0 0 28.4 0z"/><path fill="#fff" stroke-miterlimit="10" stroke-width=".9" d="M207 18.4v6m0 28.3v6m14.2-20.2h6m-34.4 0h-6"/><path fill="none" stroke-miterlimit="10" stroke-width=".9" d="M227.2 38.5a20.2 20.2 0 0 0-34.3-14.4 20.2 20.2 0 0 0 13.6 34.6 20.2 20.2 0 0 0 20.7-20.2z"/><path fill="#fff" stroke-width=".3" d="M204.6 18.4h4.8l-1.9-6.8a.5.5 0 0 0-1 0zm-6.8 2l4.6-1.7-4.1-5.7c-.4-.4-1-.2-1 .4zm-5.6 4.2l3.7-3-5.8-4c-.5-.4-1 .1-.8.6zm-3.9 6l2.4-4.3-6.8-1.7c-.5-.1-.9.5-.5.9zm-1.6 6.8l.9-4.8-7 .7c-.6 0-.7.8-.2 1zm9.2 18.2l-3.7-3.2-3 6.4c-.2.5.4 1 .9.7zm6.5 2.7l-4.6-1.7-.5 7c0 .6.6.9 1 .4zm7 .4h-4.8l1.9 6.8c.1.5.9.5 1 0zm6.8-2.1l-4.6 1.7 4.1 5.7c.3.5 1 .2 1-.3zm5.6-4.2l-3.7 3.2 5.8 4c.5.2 1-.3.8-.8zm3.9-5.9l-2.5 4.2 6.9 1.8c.5.1.9-.6.5-1zm1.6-6.9l-.9 4.8 7-.7c.6 0 .7-.8.2-1zm-.9-7l.9 4.8 6.3-3c.5-.3.4-1-.1-1zm-3.2-6.3l2.5 4.3 5-5.1c.3-.4 0-1-.6-1zm-5.2-4.8l3.8 3.1 3-6.4c.2-.5-.4-1-.9-.7zm-6.4-2.8l4.6 1.7.5-7c0-.6-.7-.8-1-.4z"/></g><g fill-opacity=".8" aria-label="Hello" font-family="Shania&amp;Heinz_PersonalUseOnly" font-size="41.1" font-weight="400" letter-spacing="0" style="line-height:1.25;-inkscape-font-specification:'Burst My Bubble, Normal';font-variant-ligatures:normal;font-variant-caps:normal;font-variant-numeric:normal;text-align:start" word-spacing="0"><path d="M246 72.1q0 .3-.3.7l-.7.6.8-.4.7-.3q-.3.8-.9 1.4l-1.2.8.9-.3q-.6.8-1.3.8h-1.4q-.5 1.5-1.2 2.9l-1.2 3q-1.3 0-2.2-.2-.9-.2-1.1-.5l.8-2.4.8-2.4-2.9-.4-3-.4q-2.4 3.7-4.9 6-2.4 2.2-4.6 3.2-2 1-3.8 1-1.8-.1-2.8-1-1-1-1.2-2.7-.1-1.6.9-3.7 1.2-2.3 2.8-3.7 1.6-1.4 3.5-2.1 1.9-.8 4-1h4.3l1-2.4L233 66q1.6-4.2 2-7 .6-3 .3-4.5-.3-1.6-1.2-2-.9-.2-2.1.8-1.2 1-2.6 3.3-1.4 2.3-2.7 6-1.1 3.2-1.2 4.6 0 1.4.5 1.2.6-.2 1.6-1.9t2-4.5h-.3l.5-.2h1q.6.1 1 .6-.7 2.6-2 4.4-1.1 1.7-2.5 2.5-1.3.8-2.7.8-1.3-.1-2.1-1-.9-1-1-2.8-.2-1.8.7-4.5 1.5-4.3 3.7-7 2.3-2.8 4.7-4 2.3-1.3 4.4-1 2.1.2 3.3 2.1 1.2 1.8 1.2 5.2-.1 3.5-2.1 8.5l-1.3 3-1.3 2.8 2.6.5 2.5.3 3-8L246 57l2.8-5.8q1.4-2.6 2.4-3.8l.9.2 1.2.5q.6.3 1 .8.5.3.5.8-1.6 2.3-4.3 8-2.7 5.7-6.6 14.8 1.4 0 2.2-.4zM232.5 51q-.7.1-1.7.8-1 .6-2.1 2-1.1 1.2-2 3.2-1 2-1.5 4.7l.6-1.9.8-1.8.7-1.4.4-.9-.8 1.9-.5 1.7q.5-1.3 1.2-2.5l1.3-2.2L230 53l.8-.9-1 .9-1 1 .4-.5q.3-.5.8-.9l1.1-.9q.6-.5 1.3-.7zm-7.2 14.5l.7-2.4 1.2-3q.6-1.5 1.5-3 .8-1.6 1.7-2.8 1-1.2 1.9-1.8 1-.6 2-.4-.5-.4-1.4-.2-1 .1-2 1.3-.4.3-.3.6h-.4v.5l-.2.1v.3l-.5.3h-.2l-.2.2-.1.2-.1.3v.5l-.2.1-.3.1v.5q-.8 1.5-1.6 3.6t-1.5 5zm-.2 7.7q-1.5-.2-2.9.3-1.3.4-2.4 1.3-1.1.9-1.9 2-.8 1.3-1.1 2.5.8-2 2-3.2 1.2-1.2 2.4-1.8 1.2-.7 2.3-.8 1-.3 1.6-.3zm0 .8q-1 0-1.8.2l-1.6.5-.2.1v.1h-.2q-.1 0 0 .2l-.2-.1-.2.3h-.2v.2h-.4l-.2.2-.1-.1q0-.1-.1 0-.1-.1-.1 0h-.1v.5h-.2l-.1.2-.1.2q-.8.8-1.2 1.7l-.6 1.3q.8-1.8 1.9-2.8 1-1.1 2.2-1.7 1.1-.6 2-.7l1.5-.3zm-6.4 4q-1 1.7-1.2 3-.2 1.1.4 1.8.5.6 1.6.6t2.6-1q1.6-.8 3.3-2.7 1.8-2 3.7-5.2h-3q-1.6 0-3 .4-1.2.3-2.4 1.1-1.2.7-2 2zM249 54.7l.2-.6q.2-.3.1-.5.8-1.5 1-2.2l.5-1.1-.6.9-1.3 2.3-1.6 3.3-1.9 4q-1 2.2-1.8 4.6-1 2.2-1.6 4.4.7-2 1.9-4.6l2.4-5.3h.2l.2-.2h.2V59l-.1-.2.4-.3q.2-.1.1-.3l.1-.5v-.2h.4l.3-.1V57l.2-.2.2-.2-.4-.4V56q.2-.1.4 0h.3l.1-.2v-.2l-.1-.4.3-.2.2-.2zm4-4.6q-.2 0-.8 1l-1.2 2.4-1.6 3.2-1.5 3.6-1.3 3.2-.8 2.2q.8-2.1 2-4.6l2.1-4.8 2-4 1-2.2zm-1.7-1.9q-.2 0-.8 1.1l-1.6 2.9-2 4.2-2.3 5-2.3 5.5-1.9 5.3 1.6-4 2-4.6 2-4.7 2.1-4.5 1.8-3.6 1.4-2.6zm-.3 24.5h.2l-.1.1h-.1zm10.6-4.3q.6-.7 1.1-.6.6 0 .2 1-1.8 2.7-4 4.5-2 1.7-4 2.5-2 .7-3.8.6-1.7-.2-2.7-1-1-1-1.2-2.5 0-1.6 1-3.6 1-1.7 2.3-2.8 1.3-1.1 2.7-1.7 1.3-.6 2.6-.6 1.3-.1 2 .5 1.2.8 1.2 2.2 0 1.2-1 2.7-.8 1.3-2.2 2.5-1.4 1.3-2.9 2-.6.3-1.2.1-.5-.1-.6-.3h1l1-.7q-.8.5-1.4.6l-.8-.1q.2.6 1 .9.8.2 2-.2 1.7-.4 3.7-1.9 2-1.4 4-4zm-2.9-1.4q0 .7-.4 1.6l-1 1.6-1.2 1.4-.7.7q1.9-1.6 2.7-3 .8-1.5.6-2.3zm-2.3 4l.5-.5.5-.7.5-.8q.3-.4.3-.8l-.3.8h-.1v.1l-.1.1v.1l-.2.2v.1l-.2.1v.2h-.2v.2q-.3.5-.7.8zm1-1.9v.1l-.2.1v.2h-.1v.1h-.1v.1l-.1.1-.5.7-.6.6.4-.3.8-1 .7-1q.4-.6.4-1l-.1.3-.2.3v.2h-.2v.4h-.2v.1zm-1.3-.5q.6-.8.8-1.5.3-.6-.2-.9l.1.2.1.4-.2.7q-.1.4-.6 1.1zm-4.6 2.2q-.8 1.4-.7 2.4.5 0 1.1-.4.7-.3.8-.5-1 .5-1.2.4-.4-.1-.4-.3h.4q.4 0 .7-.3l.9-.4.7-.6-1.2.8q-.6.3-.8.1 1.5-.7 2.5-1.6 1-.9 1.6-1.7.6-.8.8-1.5.2-.6 0-.9-.2-.2-.8 0-.5.1-1.2.7-.7.5-1.5 1.4l-1.7 2.4zm-.6 3.4q.3.7 1 .8.8.2 1.8 0 1-.3 2-.9l1.8-1.3q-1.5 1.1-2.7 1.6-1.1.4-2 .5-.8 0-1.3-.2t-.6-.5z" style="-inkscape-font-specification:'Shania&amp;Heinz_PersonalUseOnly, Normal';font-variant-ligatures:normal;font-variant-caps:normal;font-variant-numeric:normal;font-feature-settings:normal;text-align:start"/><path d="M270 53q1.4-1.7 2.8-2.3 1.3-.6 2.2-.4 1 .2 1.3 1.1.4 1-.1 2.4-.7 1.9-2.6 3.6-1.9 1.8-4.9 3.2l-1.6 2.9-1.8 3.4-.9 2-.7 2q-.3.9-.3 1.5t.4.6q.5 0 1.4-.7l1.7-1.6 1.7-1.7 1.2-1.5.6-.7.6-.2q.3 0 .4.4l-.2.6-1 1.6-2.2 2.4q-1.1 1.2-2.4 2.1-1.4 1-2.5 1.2-1.4.2-2-.6-.5-.8-.5-2.1 0-1.4.6-3.1.5-1.8 1.2-3.5l.6-1.6 1-1.8-2.2.5-2.2.3h-.3l-.3-.4q-.2-.2-.2-.5 0-.2.2-.3l3.3-.7 2.7-.8 1.3-2.2 1.3-2 1.3-1.8 1-1.4zm-7 16.8l-.8 1.4q-.3.8-.2 1.6 0 .8.4 1.2.4.5 1.3.2l-1-.2q-.3-.2-.3-.6v.1h.1l.2.2.3.2q-.4-.3-.5-.7v-1q0-.7.2-1.1l.2-.8q-.3.5-.4 1.1l-.2.6v.1q0-1 .7-2.3zm.2 3.6h.5q-.5 0-.6-.3-.2-.3-.1-.8l.1-1 .3-1-.3 1-.2.6v.2h-.1v.8l.1.1v.4h.2v.1zm.6-.2q-.4 0-.5-.2v-1.6l.2-.7-.4 1.4v.8q.1.3.3.3.2.1.4 0zm8.8-19.5l-.9 1.4-1 1.8.7-1.1 1.1-1.7 1.2-1.5q.5-.6.8-.7-.4-.1-1 .5l-.2.1v.1h-.2v.3h-.2v-.2.3q-.1 0 0 0l-.1.1v.2l-.1.1h-.1zm1.7-1.5q-.6.6-1.5 2-1 1.3-2.3 3.5 1-.8 1.7-1.6.8-.7 1.2-1.4l.6-1.4.3-1.1zm-5.4 8.1l1.3-.7 1.7-1 1.8-1.5q1-.9 1.6-2-1 1.3-2.5 2.5-1.5 1.3-4 2.7zm.3-.4l1.3-.8 1.8-1.3q1-.7 1.8-1.7 1-1 1.6-2.1-.9 1.4-2.1 2.6h-.1l-.2.2-.1.1-.1.2-.3.1h-.1l-.1.1-.1.2q-.2 0-.3.2h-.2v.2h-.1v.1l-1.3 1-1.4.9z" style="-inkscape-font-specification:'Shania&amp;Heinz_PersonalUseOnly, Normal';font-variant-ligatures:normal;font-variant-caps:normal;font-variant-numeric:normal;font-feature-settings:normal;text-align:start"/><path d="M278.1 51.8q1.5-1.7 2.8-2.3 1.4-.6 2.3-.4 1 .3 1.3 1.2.4.9-.1 2.3-.7 2-2.6 3.7-1.9 1.8-5 3.1l-1.5 3-1.8 3.4q-.5.8-.9 1.9l-.7 2q-.3 1-.3 1.6 0 .6.4.5.5 0 1.4-.7l1.7-1.6q1-.8 1.7-1.7l1.1-1.4.7-.7q.4-.3.6-.2.3 0 .4.3l-.2.7q-.2.5-1.1 1.6l-2 2.3q-1.2 1.2-2.6 2.2-1.3 1-2.4 1.1-1.4.2-2-.5-.6-.8-.5-2.2 0-1.3.6-3l1.2-3.6.6-1.6 1-1.8-2.2.6-2.2.3h-.3l-.4-.4-.1-.5q0-.3.2-.3l3.3-.7 2.7-.8 1.3-2.2 1.3-2.1 1.3-1.7q.5-.9 1-1.4zm-6.9 16.8q-.5.6-.8 1.5-.3.8-.3 1.6 0 .7.4 1.2.4.4 1.4.2-.6 0-1-.2-.3-.2-.3-.6l.2.3.4.1q-.4-.2-.5-.7v-1q0-.6.2-1l.2-.8-.5 1v.7h-.1q0-1 .7-2.3zm.2 3.6q.2.2.5 0-.5.1-.6-.2-.2-.4-.2-.9l.2-1 .3-.9-.3.9-.2.6v.2h-.2l.1.1v.6l.1.2v.4h.1v.1h.2zm.6-.1q-.4 0-.5-.3v-1.5l.2-.7-.4 1.4v.8l.3.3h.4zm8.7-19.5L280 54l-1 1.8.7-1.2 1.1-1.6 1.1-1.5q.6-.7.8-.7-.3-.2-1 .5h-.1v.2h-.2v.3h-.2v-.1q0-.1 0 0h-.1v.4l-.1.1-.1.1zm1.8-1.6l-1.6 2-2.3 3.5q1.1-.7 1.8-1.5l1.1-1.5q.5-.7.7-1.3l.3-1.2zm-5.4 8.2l1.2-.7 1.7-1 2-1.5q.9-1 1.5-2-.9 1.3-2.4 2.5-1.5 1.3-4 2.7zm.3-.5l1.3-.7 1.7-1.3 2-1.7q.9-1 1.5-2.2-.9 1.5-2.1 2.6h-.2v.1l-.1.1-.1.2-.1.1q-.2 0-.3.2h-.4v.2q-.2 0-.3.2v.1h-.2v.1h-.1v.1l-1.3 1-1.4 1z" style="-inkscape-font-specification:'Shania&amp;Heinz_PersonalUseOnly, Normal';font-variant-ligatures:normal;font-variant-caps:normal;font-variant-numeric:normal;font-feature-settings:normal;text-align:start"/><path d="M290.2 64.6l.7-.7q.4-.2.6-.1.3 0 .3.3l-.2.8-.7 1-1.4 1.6q-1 1-2 1.5-.8.5-1.8.6-1 1.4-2.2 2.2-1.2.8-2.4.9-1.1.2-2.2-.3-1-.4-1.4-1.4-.6-1-.5-2.4 0-1.5 1-3.5 1-1.8 2.2-2.9 1.3-1.1 2.5-1.5 1.3-.5 2.5-.3 1.1.2 1.8 1.1.6.9.7 2.4 0 1.6-.9 3.7l1-.4 1.2-1 .7-.9.5-.7zm-5.1-1.3q-.4.1-.7.5l-.6.9q-.3.5-.4 1.2v.5l.1.2v-.2l.2-.7V67l.3.6q-.2-.5-.1-1v-1l.4-1 .3-.5q-.4.4-.5 1h-.1v.2h-.2l.4-1q.2-.4.9-1zm-4.3 3.7q-.6 1.3-.7 2.1-.2.9 0 1.4.3.4.8.4l1.1-.2-.6.3h-.6q.2.2.7 0 .6-.1 1-.4l-.6.4-.8.2 1-.2.7-.5.5-.5.2-.4-.4.5-.5.4.5-.4.3-.5-.5.4-.4.3.5-.4.5-.6q-1-.5-1.4-1.8-.3-1.4.3-3l-.7 1.2-.9 1.3zm1 5.1q.7 0 1.4-.5.7-.4 1-1-.4.6-1 1l-1.4.5zm-1 0q1.7 0 2.6-1 1-.8 1-1.5-.2.6-.7 1.2 0-.1-.1 0h-.1v.2l-.2-.1v.3h-.2l-.2.1-.1.2h-.3v.1h-.5v.1l-.6.3h-.7zm3.6-5.8l.2 1q.2.4.8.5-.6-.2-.8-.7V66q0-.6.3-1.1l.5-.8q-.3.2-.5.6v.2h-.1v.1l-.1.3-.1.1v.3l-.1.1-.1.2v.3zm.3.7l.6-1.6.2-1.2q-.5.7-.8 1.5-.2.9 0 1.3z" style="-inkscape-font-specification:'Shania&amp;Heinz_PersonalUseOnly, Normal';font-variant-ligatures:normal;font-variant-caps:normal;font-variant-numeric:normal;font-feature-settings:normal;text-align:start"/></g><g fill="#ffc106" aria-label="Hello" font-family="Shania&amp;Heinz_PersonalUseOnly" font-size="41.1" font-weight="400" letter-spacing="0" style="line-height:1.25;-inkscape-font-specification:'Burst My Bubble, Normal';font-variant-ligatures:normal;font-variant-caps:normal;font-variant-numeric:normal;text-align:start" word-spacing="0"><path d="M246.2 70l-.4.6-.7.6.8-.3.7-.4q-.3.9-.9 1.4-.5.5-1.2.8.5 0 .9-.3-.6.8-1.3.9h-1.4l-1.2 2.8-1.2 3q-1.3 0-2.2-.2-1-.2-1.2-.5l.9-2.3.8-2.5-3-.3-3-.5q-2.3 3.8-4.8 6-2.4 2.3-4.6 3.3-2.1 1-3.9 1-1.7-.2-2.7-1.1-1-1-1.2-2.6-.1-1.7.9-3.7 1.2-2.4 2.7-3.7 1.7-1.5 3.6-2.2 1.9-.8 4-1h4.3l1-2.3 1.1-2.7q1.6-4.1 2-7 .6-2.9.3-4.5t-1.2-1.9q-.9-.3-2.1.7-1.2 1-2.6 3.3-1.4 2.3-2.7 6-1.1 3.3-1.2 4.7 0 1.4.5 1.2.6-.3 1.6-2 1-1.6 2-4.4-.5 0-.3-.1l.5-.2h1q.6.2 1 .6-.7 2.7-2 4.4-1.1 1.7-2.5 2.6-1.3.8-2.7.7-1.3 0-2.2-1-.8-1-1-2.8 0-1.8.8-4.5 1.5-4.2 3.7-7 2.3-2.7 4.7-4 2.3-1.2 4.4-1 2.1.3 3.3 2.2 1.2 1.8 1.1 5.2 0 3.4-2 8.4-.6 1.7-1.3 3.1l-1.3 2.8 2.6.4 2.5.4 3-8 3.2-7.2q1.5-3.4 2.8-5.9 1.4-2.5 2.4-3.8l.9.2 1.2.6 1 .7q.5.4.5.8-1.6 2.3-4.3 8-2.7 5.8-6.6 14.9 1.4-.1 2.2-.4zm-13.7-21.2q-.7.2-1.7.8-1 .6-2.2 2-1 1.2-2 3.2t-1.4 4.7l.6-1.8.8-1.8.7-1.5.4-.8-.8 1.8-.5 1.8 1.1-2.5q.7-1.3 1.4-2.2l1.2-1.6.8-1-1 .9-1 1.1.4-.6.8-.9 1-.9 1.4-.7zm-7.2 14.5l.7-2.3 1.2-3q.6-1.6 1.5-3.1.8-1.6 1.7-2.8.9-1.2 1.9-1.7 1-.7 2-.5-.5-.3-1.4-.2-1 .2-2 1.3-.4.4-.3.7h-.4v.4l-.2.2q-.1.1 0 .2l-.5.3h-.2l-.2.3-.1.1-.1.3v.6h-.2v.1h-.3l-.1.5-1.5 3.7q-.8 2-1.5 4.9zm-.2 7.7q-1.5-.2-2.9.3-1.3.5-2.4 1.4-1.1.8-1.9 2-.8 1.2-1.2 2.5.8-2 2-3.2 1.3-1.2 2.5-1.8 1.2-.7 2.3-.9l1.6-.3zm0 .9q-1 0-1.8.2l-1.6.5h-.2l-.1.2h-.1q-.1 0 0 .1l-.2-.1v.1l-.2.2-.2.1v.2h-.4l-.2.1-.1-.1h-.2l-.1.1v.5h-.2l-.2.1v.2q-.8.9-1.2 1.7l-.6 1.4q.8-1.8 1.9-2.9 1-1 2.2-1.7 1.1-.5 2-.7l1.4-.2zm-6.4 4q-1 1.6-1.2 2.9-.2 1.2.3 1.8.6.7 1.7.7t2.6-1q1.5-.9 3.3-2.8 1.8-2 3.7-5.1-1.6-.2-3-.1-1.6 0-3 .4-1.2.4-2.4 1.1-1.2.8-2 2.1zm30.5-23.5l.2-.5q.2-.4.1-.6l1-2.2.5-1-.6.8-1.3 2.3-1.6 3.3-1.9 4.1q-1 2.2-1.8 4.5-1 2.3-1.7 4.4l2-4.6 2.4-5.3h.2l.2-.2h.2v-.8l-.1-.2.4-.2q.2-.2.1-.4v-.7h.8V55l.2-.2.2-.2-.5-.4v-.3q.3-.2.4-.1h.4l.1-.2v-.1l-.1-.5.3-.2.1-.1zm4-4.5q-.2 0-.8.9l-1.3 2.4-1.5 3.3-1.5 3.6-1.3 3.2-.8 2.2q.8-2.2 2-4.7l2-4.8 2-4 1-2.1zm-1.7-2q-.2 0-.8 1.1l-1.6 3q-1 1.7-2 4.1l-2.3 5-2.3 5.5-1.9 5.4 1.6-4 2-4.7 2-4.7 2.1-4.4 1.8-3.7 1.4-2.6zm-.5 24.7q0-.1.2 0h-.1zm10.6-4.3q.7-.8 1.2-.7.6.1.2 1-1.8 2.8-4 4.5-2 1.7-4 2.5-2 .7-3.8.6-1.7-.1-2.7-1-1-1-1.2-2.5-.1-1.5 1-3.6 1-1.6 2.3-2.8 1.3-1 2.7-1.7 1.3-.6 2.6-.6 1.2 0 2 .5 1.2.9 1.2 2.2 0 1.3-1 2.7-.8 1.4-2.2 2.6-1.4 1.2-2.9 2-.6.2-1.2 0-.5 0-.6-.3h1l1-.6q-.9.5-1.4.5l-.8-.1q.2.7 1 1 .7.2 2-.2 1.7-.5 3.7-2 2-1.4 4-4zm-2.8-1.4q0 .7-.5 1.5-.4.9-1 1.6l-1 1.4-.8.8q1.9-1.6 2.7-3 .7-1.5.6-2.3zm-2.3 3.9l.4-.5.6-.7.5-.7q.3-.4.3-.8l-.4.7v.1h-.1v.2l-.2.2v.2h-.1l-.1.1v.1h-.1l-.1.1v.1l-.7.9zm1-1.9v.2h-.2v.4h-.1l-.1.1-.1.2-.5.6-.6.7.4-.4.8-.9.7-1q.4-.6.4-1.1l-.1.3-.2.4-.1.1-.1.1v.2h-.1v.1h-.1zm-1.3-.4q.6-.9.8-1.5.3-.7-.2-1l.1.3.1.4-.2.6q-.1.5-.6 1.2zm-4.6 2.2q-.8 1.4-.7 2.4l1.1-.4.8-.5-1.3.4-.3-.3h.4l.7-.3.8-.5.8-.5-1.2.7q-.7.3-.8.2 1.5-.8 2.5-1.7 1-.8 1.6-1.7.6-.8.8-1.4.2-.7 0-1-.2-.1-.8 0-.5.1-1.2.7-.7.5-1.5 1.5-.9 1-1.7 2.4zM251 72q.3.6 1 .8h1.8l2-1q1-.5 1.8-1.3-1.5 1.2-2.7 1.6-1.2.5-2 .6-.8 0-1.3-.2t-.6-.5z" style="-inkscape-font-specification:'Shania&amp;Heinz_PersonalUseOnly, Normal';font-variant-ligatures:normal;font-variant-caps:normal;font-variant-numeric:normal;font-feature-settings:normal;text-align:start"/><path d="M270 50.8q1.5-1.7 2.9-2.3 1.3-.6 2.2-.4 1 .2 1.3 1.2.4.9-.1 2.3-.7 2-2.6 3.7-1.9 1.7-4.9 3.1l-1.6 3-1.8 3.4q-.5.8-.9 1.9l-.7 2q-.3 1-.3 1.6 0 .6.4.5.5 0 1.4-.7l1.7-1.6q1-.8 1.7-1.7l1.1-1.4.7-.8q.4-.2.6-.1.3 0 .4.3l-.2.7-1 1.6-2.2 2.3q-1.1 1.2-2.4 2.2-1.4 1-2.5 1.1-1.4.2-2-.5-.6-.8-.5-2.2 0-1.3.6-3l1.2-3.6.6-1.6 1-1.8-2.2.5-2.2.3q-.1.2-.3 0l-.4-.4-.1-.4q0-.3.2-.3l3.3-.7 2.7-.9 1.3-2.2 1.3-2L269 52l1-1.3zm-6.9 16.8l-.8 1.5q-.3.8-.3 1.6 0 .7.5 1.2.4.4 1.3.1-.6.1-1-.1-.3-.3-.3-.6l.2.3.4.1q-.4-.2-.5-.7v-1q0-.6.2-1l.2-.8-.4 1-.2.7q0-1 .7-2.3zm.2 3.6h.5q-.5 0-.6-.2-.2-.4-.2-.9l.2-1 .3-1-.3 1-.2.6v.2h-.1v.7l.1.1v.4h.1v.1h.1zm.6-.2q-.4 0-.5-.2v-1.5l.2-.8-.4 1.4v.9l.3.3h.4zm8.8-19.5l-.9 1.4-1 1.9.7-1.2 1.1-1.6 1.1-1.5q.6-.7.9-.8-.4 0-1 .6h-.2v.1l-.2.1v.3l-.2-.1v-.1h-.1v.6h-.1l-.1.1zm1.7-1.5l-1.6 2-2.2 3.5 1.7-1.5q.8-.8 1.1-1.5.5-.7.7-1.3l.3-1.2zm-5.4 8.1l1.2-.6 1.8-1.1q.9-.6 1.8-1.5.9-.8 1.5-1.9-.9 1.2-2.4 2.5-1.5 1.2-4 2.6zm.3-.4l1.3-.7 1.8-1.3q1-.8 1.8-1.7 1-1 1.6-2.2-.9 1.5-2.1 2.6h-.1l-.2.2-.1.2-.1.1q-.2 0-.3.2h-.2l-.1.2q-.2 0-.3.2h-.2v.2h-.1v.1l-1.3 1-1.4 1z" style="-inkscape-font-specification:'Shania&amp;Heinz_PersonalUseOnly, Normal';font-variant-ligatures:normal;font-variant-caps:normal;font-variant-numeric:normal;font-feature-settings:normal;text-align:start"/><path d="M278.2 49.6q1.5-1.6 2.8-2.2 1.4-.6 2.3-.4 1 .2 1.3 1.1.4 1-.2 2.4-.6 1.9-2.5 3.7-1.9 1.7-5 3l-1.5 3q-1 1.6-1.8 3.4-.5.8-.9 2l-.7 2q-.3.9-.3 1.5 0 .7.4.6.5 0 1.4-.7l1.7-1.6 1.7-1.7 1.1-1.5.7-.7.6-.2q.3 0 .3.4.1.2-.1.6-.2.5-1.1 1.7l-2 2.3q-1.3 1.2-2.6 2.1-1.3 1-2.4 1.2-1.4.2-2-.6-.6-.8-.5-2.1 0-1.4.6-3.1.5-1.8 1.2-3.5l.6-1.6 1-1.8-2.2.5-2.2.3h-.3l-.4-.4-.1-.5q0-.2.2-.3l3.2-.7 2.8-.8 1.3-2.2 1.3-2L277 51l1.1-1.4zm-7 16.9q-.4.5-.7 1.4-.3.8-.3 1.6t.4 1.2q.4.5 1.4.2-.6 0-1-.2-.3-.2-.4-.6l.1.1.2.2.4.2q-.4-.3-.5-.7v-1q0-.7.2-1.1l.2-.8-.5 1.1v.6l-.2.1q.1-1 .8-2.3zm.3 3.6h.5q-.5 0-.7-.3V69l.1-1 .3-1-.3 1-.2.6v.2h-.2.1v1h.2l-.1.2h.1v.1h.2zm.6-.2q-.4 0-.5-.2V68l.2-.7-.4 1.4v.8q.1.3.3.3.2.1.4 0zm8.7-19.5l-.8 1.4-1 1.8.7-1.1 1.1-1.7 1.1-1.5.8-.7q-.4-.1-1 .6h-.1v.1h-.2v.3h-.1q-.1-.2-.2-.1v.5h-.1v.1h-.1l-.1.1zm1.8-1.5l-1.6 2q-1 1.3-2.3 3.5l1.8-1.5 1.1-1.5.7-1.4.3-1.1zM277 57l1.3-.7 1.7-1 1.9-1.5q.9-.9 1.5-2-.9 1.3-2.4 2.5-1.5 1.3-4 2.7zm.4-.4l1.3-.8 1.7-1.3q1-.7 2-1.7.9-1 1.5-2.1-.9 1.4-2.1 2.6h-.2l-.1.2-.2.1v.2l-.3.1h-.1l-.2.1v.2q-.2 0-.3.2h-.1v.2h-.3v.1l-1.2 1-1.4.9z" style="-inkscape-font-specification:'Shania&amp;Heinz_PersonalUseOnly, Normal';font-variant-ligatures:normal;font-variant-caps:normal;font-variant-numeric:normal;font-feature-settings:normal;text-align:start"/><path d="M290.3 62.5q.4-.6.7-.7.4-.3.6-.2.3 0 .3.4l-.2.7-.7 1.1-1.4 1.6q-1 1-2 1.5-.8.4-1.8.5-1 1.5-2.2 2.3-1.2.7-2.4.8-1.1.2-2.2-.2-1-.5-1.4-1.5-.6-1-.5-2.4 0-1.5 1-3.4 1-1.8 2.2-3 1.3-1 2.5-1.5 1.3-.5 2.4-.3 1.2.3 1.9 1.2.6.8.7 2.4 0 1.5-.9 3.7l1-.5 1.2-1 .7-.8.5-.7zm-5.2-1.4q-.3.1-.6.5-.4.4-.6 1-.3.5-.4 1.1v.5l.1.2v-.2l.1-.6v.3l.1.2v.8l.3.5q-.2-.4-.2-1l.2-1q0-.5.2-.9l.4-.5q-.4.4-.5 1h-.1v.1l-.2.1q0-.6.4-1 .2-.5.8-1zM281 65q-.6 1.2-.7 2-.2 1 0 1.4.3.4.8.5.5 0 1.1-.3-.1.2-.6.3-.4.2-.7.1.3.2.8 0l1-.5q-.2.3-.6.5l-.8.1 1-.2.7-.4.5-.5.2-.5-.4.6-.5.3.4-.4.4-.4-.5.4-.4.2.5-.4.4-.5q-1-.5-1.3-1.9-.3-1.4.3-3l-.8 1.2-.8 1.4zm1 5q.7 0 1.4-.4.7-.5 1-1.1-.4.6-1 1-.7.4-1.4.5zm-1 0q1.6 0 2.6-.9 1-.8 1-1.5-.2.6-.7 1.1h-.1l-.1.1v.1h-.2v.2h-.1l-.2.1h-.1l-.1.2h-.3v.2h-.1q0-.1-.1 0h-.5v.1l-.6.2h-.7zm3.5-5.8q0 .5.3 1 .2.4.8.5-.6-.2-.8-.7v-1.1q0-.6.3-1l.5-.9-.5.6v.3h-.1q-.1 0 0 0-.2.2-.1.3l-.1.2v.3h-.1l-.2.3v.2zm.4.8l.6-1.6.2-1.2q-.5.6-.8 1.5-.2.8 0 1.3z" style="-inkscape-font-specification:'Shania&amp;Heinz_PersonalUseOnly, Normal';font-variant-ligatures:normal;font-variant-caps:normal;font-variant-numeric:normal;font-feature-settings:normal;text-align:start"/></g><g fill-opacity=".8" stroke-width="1.7" aria-label="Rust!" font-family="Shania&amp;Heinz_PersonalUseOnly" font-size="68.7" font-weight="400" letter-spacing="0" style="line-height:1.25;-inkscape-font-specification:'Burst My Bubble, Normal';font-variant-ligatures:normal;font-variant-caps:normal;font-variant-numeric:normal;text-align:start" word-spacing="0"><path d="M188.8 109.5q1.6-3 4.5-5.2t6.5-3.7q3.6-1.5 7.7-2.2 4-.7 8-.7t7.7.7q3.6.7 6.2 2.2 2.7 1.4 4.2 3.5 1.5 2 1.3 4.8-.3 2.1-1.7 4.4-1.4 2.1-3.7 4.1-2.3 2-5.3 3.7-3 1.7-6.3 2.9t-7 1.9q-3.4.7-6.8.6 1.8 4.4 4 8.2 2.2 3.8 4.5 6.7 2.3 2.9 4.4 4.8 2.2 1.9 3.8 2.5-.8.7-2 1.3-1 .7-2.4 1.1-1.2.5-2.5.8-1.2.3-2.2.1-1.8-1.6-3.5-4.1-1.7-2.6-3.2-5.6-1.5-3-2.7-6.2-1.2-3.2-1.9-6-3.2 5.6-6 11.7l-5.3 11.3q-2 .4-3.2-.3-1.2-.7-1.6-1.5l2.3-6q1.3-3.7 3-7.8l3.7-8.6 4-8.6q2.1-4.4 4.2-8.3 2.2-3.9 4.3-7-2.5.7-5 2-2.4 1.2-4.6 3-2 1.6-3.7 3.7-1.6 2-2.5 4.3-.2-.5 0-1.4.1-1 .5-2l.8-1.8q.5-1 .9-1.4-.5.2-1 1-.7.6-1.3 1.4l-1 1.6q-.5.7-.5 1-.4-.9-.4-2.7 0-1.9.8-4.2zm5-4.4l3.5-2.1q2.4-1.3 5.8-2.4 3.4-1.1 8-1.6 4.7-.5 10.7.1-4.1-1-8.5-.8-4.3.1-8.2 1.1-3.8 1-6.8 2.5t-4.5 3.2zm-8 45.2l2.7-6 2.8-6.2q.4-.3.5-.8 0-.5.4-1.2l.4-.7.4-1.2.3-1v-.7l.7-.2.3-.7.3-.6.2-.6q.5-.4.9-1l.5-1 .4-.4-.1-.6.4-.5.3-.4.1-.4v-.7q0-.5.4-1.1l.3-1 .2-.7.4-.7.4-.3v-.6l.1-.2.4-.3 4.3-8.9q2-4 3.7-7-6 8.5-11.2 20.1-5 11.5-10.4 25.6zm15.3-20.6l1 3.7q.8 2.5 2.2 5.7 1.4 3.2 3.5 6.5 2 3.3 4.9 6-2.6-3-5.5-7.8 0-.5-.3-.6l-.4-.1v-.3l-.1-.2v-.3q0-.2-.2-.3h-.2v-.2l-.4-.3q.2-1-.2-1.3l-.4-.4v-.2l-.2-.3q0-.7-.3-1h-.2v-.2l-.1-.2-.2-.1v-.7l-.2-.4-.2-.1-.1-.2.1-.1.1-.1h-.2v-.1l-1.2-3-1.2-3.4zm1.7 2.8q0 .6.6 2.3l1.7 3.9q1 2.1 2.4 4.5 1.4 2.2 2.8 4-1.2-1.7-2.4-3.9l-2.2-4.3-1.8-3.9-1.1-2.6zm16.5 16.3q-2.2-1.6-4.2-3.8l-3.8-4.4q-1.7-2.2-3-4.3-1.3-2-2-3.6.1.6 1.2 2.6 1 2 2.8 4.5 1.7 2.5 4 5 2.4 2.4 5 4zm-6.8-.2q-1.8-2.5-3.3-5.3-1.6-2.8-2.8-5.3l-2.2-4.5q-.8-2-1-3.2-.1.8.6 3t2 5q1.2 2.6 3 5.5 1.7 2.8 3.7 4.8zm-22-4.5l1.6-3.3 2.4-5.4 3-6.4 3-6.3 2.5-5.3q1.2-2.3 1.9-3.2l-2.5 4-3.4 7.1q-2 4-4.2 9-2.2 4.8-4.2 9.8zm26.4-40.5l-2.1 3.1-3 4.4-3.4 5.1-3.6 5.7q4.6 0 8.4-1.2 4-1.2 6.9-3 3-1.9 4.7-4.2 1.7-2.4 2-4.7.1-1.1-.6-2-.7-1-2-1.6-1.3-.7-3.2-1.1-1.9-.4-4.1-.5zm-4.6 18.3q-2.2.6-3.9.8l-2.5.1q4.1 0 7.3-.8 3.2-.7 5.5-1.8 2.4-1.1 4-2.5 1.6-1.3 2.6-2.6t1.6-2.4l.5-1.8q-1.6 3.6-4.3 5.8-2.7 2.2-5.7 3.5-.2-.1-.3.3-.2 0-.3.2l-.4.2q-.7.2-.7.4h-.3l-.4-.2-.2.3-.2.1-.2.1-.2-.2v.3h-.4l-.2-.1v.3h-.4l-.3.1-.2-.2-.2-.2-.1.1-.1.2zm-5.7 2.4q4 .3 7.5-.3 3.4-.8 6.3-2.1 2.8-1.5 5-3.3 2-2 3.4-3.8 1.5-2 2-3.8.8-1.8.6-3.2-.3 2.4-1.5 4.5-1.3 2.1-2.9 3.8-1.6 1.7-3.3 2.8-1.7 1.2-2.7 1.6 1.1-.7 2.4-1.8 1.2-1 1.5-2-1.3 1.3-2.7 2.2-1.4 1-2.7 1.7-1.3.7-2.5 1-1.1.5-2 .7 1 .2 2.3-.2l2.5-1q-.7.7-2.5 1.3-1.7.6-3.8 1-2 .5-4 .7l-3 .2zm-16.5-3.7l-.3-.1v-1.1l.1-.4.1.3.3.4v.6q0 .2-.2.3zm-1.3-3.5q.3-.3.3.3 0 .5-.2.6-.2 0-.3-.2-.1-.3.2-.7z" style="-inkscape-font-specification:'Shania&amp;Heinz_PersonalUseOnly, Normal';font-variant-ligatures:normal;font-variant-caps:normal;font-variant-numeric:normal;font-feature-settings:normal;text-align:start"/><path d="M226.5 142.7q.4-.1.8-.5-.4.4-.8.5zm19.6-10.8q.6-.9 1.2-1.2.7-.4 1-.2.5 0 .5.6l-.3 1.2-2 2.6q-1.5 1.9-3.5 3.8-2 2-4.2 3.5t-4 1.7q-1.7.2-2.8-.4.4.4.9.5l.8.1q-1 .1-1.5-.1-.6-.4-1-.9-.4-.6-.5-1.2l-.2-1q-2 3-4.1 3.8-2 .8-3.6.3-1.3-.2-2.2-1.5-.9-1.4-.8-3.7 0-2.3 1.2-5.7 1.2-3.4 4.2-7.8.5-1 2-1.1 1.4-.1 2.7.1l-.2.5-.4.6q0 .3-.2.5v.2l.3-.3.4-.6.5-.6q.2-.3.4-.3.8.2 1.3.5l.5.3-2.2 3.2-2 3.5-1.5 3.3-1.1 3q-.4 1.4-.3 2.2 0 .9.5 1 .8.1 1.6-.9.9-1 1.8-2.5 1-1.6 1.8-3.3l1.4-3 1-2.1 1-2.2.9-1.7q.4-.8.7-.9h1.4l2.2.5q1.2.2 2 .6.7.3.5.6l-1 1.3-1.6 2.7-1.8 3.1q-1 1.7-1.6 3.2-.6 1.4-.8 2.4-.1.8.5.7.9-.1 2.3-1.2 1.5-1 3-2.5 1.6-1.4 2.9-2.8l2-2.4zm-14.6-5.4q-.3.1-1 1l-1.1 1.8-1 1.9-.6 1.4q.3-.8.9-1.7l1.1-2 1-1.5.7-1zm-6.4 17.7q.4.3 1.3 0l1.7-1q.9-.8 1.6-1.8.7-1 .9-2-.4 1.3-1 2-.7.8-1.5 1.4l-.2.1v.2q-.3 0-.4.2h-.1v.1l-.1.2-.3-.2v.1l-.2-.1h-.2v.2l-.1.1h-.1v.2l-1.3.3zm3.2-3l.9-1.3.9-1.6.6-1.4.5-1q-1.4 2.9-2.4 4.3t-1.7 2q-.6.5-1 .4l-.5-.1q.4.4 1 .2l-1.2.2-1.2-.2q1.2.8 2.8 0 1.5-.9 2.2-2.6l-.5.7-.4.5zm9.5-7q-1.5 2.2-2.2 3.7-.7 1.4-.8 2.2l.1 1q.3.2.7 0-.6 0-.5-1h.1l.2-.1h-.1v-.6l.1-.1q.1 0 0 0v-.3l.3-.1-.1-.1h-.1v-.4h.1l.1-.1h.2q-.2-.3 0-.3v-.2q0-.2.2-.3l1-2.1.7-1.2zm-7.5 8.1q.2 0 .1.3 0 .3-.2.2-.2-.1-.2-.3 0-.3.3-.2zm-.1-.6v.1l-.2.1q-.2 0 0 0l.2-.2z" style="-inkscape-font-specification:'Shania&amp;Heinz_PersonalUseOnly, Normal';font-variant-ligatures:normal;font-variant-caps:normal;font-variant-numeric:normal;font-feature-settings:normal;text-align:start"/><path d="M265.8 129.6q.7-.9 1.3-1.2.6-.3 1-.1.4 0 .5.5 0 .5-.5 1.2-.2.6-1 1.7l-2.1 2.5-2.8 2.8q-1.5 1.4-3.3 2.6-2.6 1.8-4.9 2.3-2.3.5-4 0-1.7-.4-2.6-1.5-1-1.2-1-2.8.3-2 1.7-3.3 1.4-1.2 2.4-1-1.1.8-1.1 2 0 1.1.5 1.8-.3-.7-.3-1.3 0-.6.2-1 .2-.5.5-.7l.5-.4q-.6.5-.8 1.3-.2.8 0 1.5.3.7.8 1.2.6.4 1.4.3 2-.2 2.1-2.9.2-2.6-2.5-7.4l-2.2 3-1.9 2.6q-.3.4-.7.4-.4 0-.7-.2-.3-.2-.5-.6 0-.5.3-1l1-1.5 1.5-2.1 1.3-2.1.7-1 2.1-3q1-1.6 2-2.5 1-1 2-1.3 1-.2 1.9.7.9.9.4 1.7-.4.8-1.2 1.4-1 .8-2.4 1.5 3 3.6 4 6.7 1 3 1 5l3.2-3.1q1.5-1.6 2.2-2.7zm-9-7q2-1.1 1.9-2 0-1.1-.7-1.6.6.7.6 1.7 0 .9-1.9 2zm1.2-1.3q-.5.6-1.4 1.1 1-.5 1.4-1 .4-.5.3-1 0-.4-.2-.7l-.4-.4q.6.4.6 1.2l-.2.2v.3h-.2zm-8 18.3q1.6.5 3.5-.6-1.5.8-2.6.6-1-.2-1.7-.8-.6-.6-.9-1.3l-.3-1.3q-.2 1.3.5 2.2v.6l.3-.1v.3h.5v.2l.1.1q0 .2.2 0l.2-.2v.4q.2.2.3-.1zm-.9-3.5q0 1.3.7 2 .8.7 1.7.8 1 0 1.8-.4.9-.4 1.2-1.4-.6.9-1.5 1.2-.7.4-1.6.3-.8-.2-1.5-.8-.6-.6-.8-1.7zm10.4-.3q.2-2.5-.6-4.7l.8 2.4q-.3-2-1.1-3.8-.8-2-1.6-2.7l1 1.7.4 1-1.6-2.7-1.4-2q1.9 2.6 2.9 5.3 1 2.6 1.2 5.5zm-8.7-2.7q.1 0 0 .2h-.1q-.1 0 0-.2 0-.2.1 0z" style="-inkscape-font-specification:'Shania&amp;Heinz_PersonalUseOnly, Normal';font-variant-ligatures:normal;font-variant-caps:normal;font-variant-numeric:normal;font-feature-settings:normal;text-align:start"/><path d="M294.4 106q.7-.1.4.6-.2.7-.8 1.7l-1.6 1.8q-.8.7-1.3.8l-8.8 1-2.6 3.8-2.8 4.3-2.7 4.2-2 3.5-1.4 3-1.2 3.1-.5 2.3q0 .9.7.8 1-.1 2.5-1.2l3-2.4 2.8-3 2-2.3q.7-1 1.2-1.2.7-.3 1-.2.5 0 .5.5t-.3 1.2q-.5.9-2 2.8-1.5 1.8-3.5 3.8-2 1.8-4.2 3.4-2.2 1.5-4 1.7-2.5.3-3.7-.6-1.1-1-1.2-2.8-.3-1.8.4-4.3.7-2.4 1.8-5 1.6-3.8 3.8-7.5l4.1-6.9-3.5.4q-2.3.3-3.5-.4-1.3-.7-1.8-1.7t-.3-2q.3-1.2 1-1.6-.1.3 0 .8.3.4.8.5-.5-.3-.6-.9 0-.6.5-1-.4 1.2.4 1.6.8.4 2.3.2l3.3-.3 4.6-.6 1.4-2 .9-1.5.7-1 .7-1q.4-.6 1.3-1 .8-.5 1.8-.7l-.5.8-.8 1.3-.7 1.3-.5.8.8-1 1-1.6 1.1-1.8h.4l-.5 1-.4.9 1-1.4q.5-.6 1.1-.7 1.7-.3 3 0 1.2.4 1 .8l-.7 1.2-1.2 1.6-1.2 1.7-1 1.3 5.4-.7 3.1-.2zm-28.6 3.6q0 1.2 2 1.5 2.1.3 6.6-.6-2.9.5-4.5.5-1.7 0-2.5-.2-.9-.2-1.2-.6l-.4-.6zm2.5 25.6q.8-3 2.1-5.8l2.6-5 2.4-4 1.3-2-1.3 1.4-1.7 2.8h-.4q0-.3.8-1.5l1.8-3 2.1-3q1-1.6 1.8-2.2-.5.2-1.5 1.3-.9 1-2.3 3h-.2v.2l-.3.1v.4l.1.4-.3.1v.3q0 .2-.2 0l-.2-.1v.4h.2-.6v.7l.1.2h-.7l-.1.2.2.6h-.3q-.2-.1-.4 0t-.3.5v.5l-2.2 4q-1 2.1-1.7 4.4l1.5-2.9.7-1.2.3.3q-1.2 2.4-2.2 4.9-1 2.4-1.1 4zm2.1-4.6l2.4-4.7 3.2-5.3 3-4.7 2-2.9q-.3 0-1.2 1l-1.9 2.8-2.2 3.7q-1.3 2.1-2.3 4.1l-2 3.5-1 2.5zm17.3 1.9l1.3-.1 1.9-.1h2l1.5-.1-1.5 3-1.3 2.4q-2.1 0-3.6-.5-1.4-.5-1.9-1l1.6-3.6zm23-44.4q.5 0 1.4.4l2 1q1 .6 1.6 1.4.7.7.7 1.4l-1.4 2.4-2.7 5-3.7 6.7-4.2 7.6-4.4 8q-2 3.9-4 7.3h-1.4l-2 .2h-2l-1.5.1 3-6.5 3.8-7.6 4-8 4-7.8 3.8-6.7 3-5zm-.9 6q-.3 0-1.6 2.1l-3 5.4-3.7 7-3.7 7.4-3 6.3-1.4 3.8 1.5-2.7 2.8-5.3 3.7-6.8q2-3.6 3.6-7 1.8-3.3 3-6 1.3-2.7 1.8-4.1zm-1 5.4l-1 2-2 3.6-2.4 4.5-2.4 4.5-1.9 4-1 2.3 1-1.7 1.9-3.5 2.3-4.4 2.5-4.6 2-4q.8-1.8 1-2.7zm-13.3 28l1.3-2.4 2.8-4.8 3.3-6.2 3.2-6.4 2.8-5.6 1.7-3.7-1.6 2.7-2.8 5-3.3 6.3-3.3 6.5-2.6 5.3-1.5 3.3z" style="-inkscape-font-specification:'Shania&amp;Heinz_PersonalUseOnly, Normal';font-variant-ligatures:normal;font-variant-caps:normal;font-variant-numeric:normal;font-feature-settings:normal;text-align:start"/></g><g fill="#ffc106" stroke-width="1.7" aria-label="Rust!" font-family="Shania&amp;Heinz_PersonalUseOnly" font-size="68.7" font-weight="400" letter-spacing="0" style="line-height:1.25;-inkscape-font-specification:'Burst My Bubble, Normal';font-variant-ligatures:normal;font-variant-caps:normal;font-variant-numeric:normal;text-align:start" word-spacing="0"><path d="M189 106q1.6-3 4.5-5.3 3-2.3 6.6-3.7 3.6-1.5 7.7-2.2 4-.7 8-.7t7.6.7q3.6.7 6.3 2.2 2.7 1.4 4.2 3.5 1.4 2 1.2 4.8-.2 2.1-1.6 4.4-1.5 2.1-3.8 4.1-2.3 2-5.3 3.7-2.9 1.7-6.3 2.9-3.3 1.2-6.9 1.9-3.5.7-6.9.6 1.8 4.4 4 8.2 2.3 3.8 4.6 6.7 2.2 2.9 4.4 4.8 2.1 1.9 3.7 2.5-.7.6-2 1.3-1 .6-2.3 1.1l-2.6.8q-1.2.3-2.2.1-1.8-1.6-3.5-4.1-1.7-2.6-3.2-5.6-1.4-3-2.6-6.2-1.2-3.2-2-6-3.2 5.6-6 11.6l-5.2 11.4q-2 .4-3.3-.4-1.2-.7-1.6-1.4l2.3-6.1 3-7.8 3.7-8.5 4-8.7 4.3-8.2q2.2-3.9 4.2-7-2.5.7-5 2-2.4 1.2-4.5 3-2.1 1.6-3.7 3.7-1.7 2-2.5 4.3-.2-.5-.1-1.4.1-1 .5-2l.8-1.8q.5-1 1-1.4-.5.1-1.1 1-.7.6-1.3 1.4l-1 1.6-.5 1q-.4-.9-.3-2.7 0-1.9.7-4.2zm5-4.5l3.6-2.1q2.3-1.3 5.7-2.4 3.5-1.1 8.1-1.6 4.7-.5 10.6.1-4.1-1-8.4-.8-4.3.1-8.2 1.1-3.8 1-6.9 2.5-3 1.5-4.5 3.2zm-7.9 45.2l2.7-6 2.7-6.2q.5-.3.6-.8 0-.5.3-1.2l.4-.7.4-1.2.3-1v-.7l.7-.3.4-.6.2-.6.2-.6q.6-.4 1-1l.4-1q.4-.2.4-.5v-.5l.4-.5q0-.3.2-.4l.2-.4-.1-.7q0-.5.5-1.1l.2-1 .3-.7.3-.7.5-.3v-.8l.5-.3 4.3-8.9 3.6-7.1q-6 8.6-11.1 20.2-5.2 11.5-10.5 25.6zm15.3-20.6l1 3.7q.8 2.5 2.2 5.7 1.4 3.2 3.4 6.5t4.9 5.9q-2.6-2.8-5.4-7.7 0-.5-.4-.6l-.3-.1v-.3l-.2-.2v-.3q0-.2-.2-.3h-.2v-.3l-.4-.3q.2-1-.1-1.2l-.4-.4-.1-.2-.2-.3q.1-.8-.2-1h-.2v-.2l-.2-.2-.2-.1v-.7l-.2-.4-.1-.2h-.2l.1-.2.2-.1h-.2l-.1-.1-1.2-3-1.1-3.4zm1.6 2.8q0 .6.7 2.3.6 1.7 1.7 3.9l2.3 4.5q1.4 2.2 2.8 4-1.2-1.7-2.3-3.9l-2.3-4.3-1.8-3.9-1.1-2.6zm16.6 16.3q-2.2-1.6-4.3-3.8-2-2.2-3.7-4.4-1.7-2.2-3-4.3-1.3-2-2-3.6 0 .6 1.1 2.6 1 2 2.8 4.5 1.8 2.5 4 5 2.4 2.4 5 4zm-6.9-.3l-3.3-5.2q-1.6-2.8-2.8-5.3-1.3-2.5-2.1-4.5-.9-2-1.1-3.2 0 .8.6 3l2 5q1.3 2.6 3 5.5 1.7 2.8 3.7 4.7zm-21.9-4.4l1.5-3.3 2.4-5.4 3-6.4 3-6.3 2.6-5.3 1.8-3.2q-.8 1.1-2.4 4l-3.5 7.1q-2 4-4.2 9l-4.2 9.8zm26.3-40.5l-2.1 3-2.9 4.4-3.4 5.1-3.7 5.7q4.6 0 8.5-1.2 4-1.2 6.8-3 3-1.9 4.7-4.2 1.8-2.4 2-4.7.1-1.1-.6-2-.6-1-2-1.6-1.3-.7-3.2-1.1-1.8-.4-4-.5zm-4.6 18.3q-2.1.6-3.8.8l-2.6.1q4.2 0 7.3-.8 3.2-.7 5.6-1.8 2.3-1.1 3.9-2.5 1.6-1.3 2.7-2.6 1-1.3 1.5-2.4.5-1.2.5-1.8-1.6 3.6-4.3 5.8-2.7 2.2-5.7 3.5-.2-.1-.3.3-.2 0-.3.2l-.4.2q-.7.2-.7.4h-.3l-.3-.2-.3.3-.2.1-.2.1-.1-.2v.3h-.4l-.2-.1-.2.3h-.3l-.3.1-.2-.2-.1-.2-.2.1-.1.2zm-5.7 2.3q4 .4 7.5-.3t6.3-2q2.8-1.5 5-3.3 2-2 3.5-3.8 1.4-2 2-3.8.7-1.8.6-3.2-.3 2.4-1.6 4.5-1.2 2.1-2.8 3.8-1.6 1.6-3.4 2.8-1.6 1.2-2.7 1.6 1.2-.7 2.4-1.8 1.3-1 1.5-2-1.2 1.2-2.6 2.2-1.4 1-2.7 1.7-1.3.7-2.5 1l-2 .7q1 .2 2.2-.2l2.5-1q-.7.7-2.5 1.3-1.7.6-3.8 1-2 .5-4 .7-1.8.2-2.9.1zm-16.4-3.6l-.4-.1v-1.1l.2-.4v.3l.3.4.1.6q0 .2-.2.3zm-1.4-3.5q.3-.3.3.3 0 .5-.2.6l-.2-.2q-.2-.3.1-.7z" style="-inkscape-font-specification:'Shania&amp;Heinz_PersonalUseOnly, Normal';font-variant-ligatures:normal;font-variant-caps:normal;font-variant-numeric:normal;font-feature-settings:normal;text-align:start"/><path d="M226.8 139q.4 0 .8-.4l-.8.5zm19.5-10.7q.7-.9 1.3-1.2.6-.4 1-.2.4 0 .5.6 0 .4-.4 1.2l-2 2.6q-1.5 1.9-3.5 3.8-2 2-4.2 3.5-2.1 1.5-4 1.7-1.7.2-2.7-.4.4.4.8.5l.8.1q-1 .1-1.5-.1-.6-.4-1-.9l-.5-1.2-.2-1q-2 3-4.1 3.8-2 .8-3.6.3-1.2-.2-2.1-1.5-1-1.4-.9-3.7 0-2.3 1.2-5.7 1.2-3.4 4.2-7.8.6-1 2-1.1 1.4-.1 2.7.1l-.2.5-.3.6-.2.5v.2l.2-.3.4-.6.5-.6q.3-.3.5-.3l1.2.5.5.3-2.1 3.2-2 3.5-1.6 3.3-1.1 3q-.3 1.3-.3 2.2 0 .9.6 1 .7.1 1.6-.9l1.7-2.5q1-1.6 1.8-3.3l1.5-3.1 1-2 .9-2.2 1-1.7q.3-.8.6-.9h1.4l2.3.4 1.9.7q.8.3.5.6l-1 1.3-1.6 2.7-1.8 3.1-1.5 3.2q-.6 1.4-.8 2.4-.2.8.4.7.9-.1 2.4-1.2 1.4-1 3-2.5l2.8-2.8q1.4-1.5 2-2.4zm-14.6-5.4q-.3.1-.9 1-.6.7-1.2 1.8l-1 1.9q-.5 1-.5 1.4l.8-1.7 1.2-2 1-1.5.6-1zm-6.4 17.7q.4.3 1.3 0 .9-.4 1.8-1.1.8-.7 1.6-1.7.7-1 .8-2-.4 1.3-1 2-.7.8-1.5 1.4l-.2.1v.2q-.2 0-.3.2h-.2v.1q-.1 0 0 .2l-.3-.2v.2l-.2-.2h-.2v.2l-.2.1v.2l-1.4.3zm3.2-3l1-1.3.8-1.6.7-1.4.4-1q-1.4 2.9-2.4 4.3l-1.7 2q-.6.5-1 .4l-.4-.1q.4.4.9.2-.5.2-1.2.2-.5 0-1.2-.3 1.2.9 2.8 0 1.6-.8 2.3-2.5l-.6.7-.4.5zm9.6-7q-1.6 2.2-2.2 3.7-.7 1.4-.8 2.2v1q.4.2.8 0-.6 0-.5-1l.2-.1-.1-.1q.2-.1 0-.5l.2-.1v-.3l.2-.1v-.1h-.2q.1-.1 0-.2v-.2h.2v-.1h.2q-.2-.3.1-.3v-.5l1.2-2.1.7-1.2zm-7.6 8.1q.2 0 .2.3 0 .2-.2.2-.3-.1-.2-.3 0-.3.2-.2zm0-.6l-.1.1-.2.1q-.1 0 0 0l.2-.2z" style="-inkscape-font-specification:'Shania&amp;Heinz_PersonalUseOnly, Normal';font-variant-ligatures:normal;font-variant-caps:normal;font-variant-numeric:normal;font-feature-settings:normal;text-align:start"/><path d="M266 126q.7-.9 1.3-1.2.7-.3 1-.1.4 0 .5.5 0 .5-.4 1.2l-1.1 1.7-2.1 2.5q-1.2 1.4-2.8 2.8-1.5 1.4-3.2 2.6-2.7 1.8-5 2.3-2.3.5-4 0-1.6-.4-2.6-1.5-1-1.2-1-2.8.3-2 1.7-3.3 1.4-1.2 2.4-1-1 .7-1 2 0 1 .5 1.8-.4-.7-.4-1.3 0-.6.2-1l.5-.7.5-.4q-.6.5-.8 1.3-.1.8.1 1.5t.8 1.2q.5.4 1.3.3 2-.2 2.2-2.9.2-2.6-2.5-7.4l-2.2 3-2 2.6q-.3.4-.7.4-.4 0-.7-.2-.3-.2-.4-.6-.1-.5.2-1l1.1-1.5 1.4-2.1 1.4-2.1.7-1q1-1.7 2-3 1-1.6 2-2.5 1.1-1 2-1.3 1-.2 2 .7.8.9.3 1.7-.4.8-1.2 1.4-1 .8-2.4 1.5 3 3.6 4 6.6 1 3 1 5.1 1.7-1.5 3.2-3.1 1.5-1.6 2.3-2.7zm-9-7q2-1.1 2-2 0-1.1-.8-1.6.6.7.6 1.7 0 .9-1.8 2zm1.2-1.3q-.4.6-1.3 1.1 1-.5 1.3-1 .4-.6.4-1t-.2-.7l-.5-.4q.7.4.6 1.2l-.2.2v.3h-.1zm-7.9 18.3q1.6.5 3.5-.6-1.6.8-2.7.6-1-.2-1.6-.8-.7-.6-1-1.3l-.2-1.3q-.2 1.3.4 2.2v.6l.4-.1q-.1 0 0 .2l-.1.1h.2l.4-.1v.4q.1.2.3 0l.1-.2.1.4q.2.1.2-.1zm-1-3.5q0 1.3.8 2 .7.6 1.6.8 1 0 1.8-.4 1-.4 1.2-1.4-.6.9-1.4 1.2-.8.4-1.7.3-.7-.2-1.4-.8-.6-.6-.8-1.7zm10.5-.3q.1-2.5-.7-4.7l.8 2.4q-.3-2-1.1-3.8-.8-2-1.6-2.7l1 1.7.4 1q-.7-1.5-1.6-2.7-.7-1.3-1.4-2 2 2.6 3 5.3 1 2.6 1.2 5.5zm-8.7-2.8v.3h-.2v-.2q0-.2.2 0z" style="-inkscape-font-specification:'Shania&amp;Heinz_PersonalUseOnly, Normal';font-variant-ligatures:normal;font-variant-caps:normal;font-variant-numeric:normal;font-feature-settings:normal;text-align:start"/><path d="M294.6 102.4q.7-.1.5.6-.2.7-.9 1.7-.6.9-1.5 1.8-.8.7-1.4.8l-8.8 1-2.5 3.8-2.9 4.3-2.7 4.2-2 3.5-1.4 3-1.1 3.1q-.5 1.4-.5 2.3 0 .9.7.8 1-.1 2.4-1.2 1.5-1 3-2.5l2.8-2.8q1.4-1.5 2-2.4.7-1 1.3-1.2.6-.3 1-.2.4 0 .5.5 0 .5-.4 1.2-.4.9-2 2.8-1.5 1.8-3.5 3.7-2 2-4.2 3.5t-4 1.7q-2.5.3-3.6-.6-1.2-1-1.3-2.8-.2-1.8.5-4.3.6-2.4 1.8-5 1.5-3.8 3.7-7.6l4.2-6.8-3.6.4q-2.2.3-3.5-.4-1.2-.7-1.8-1.7-.4-1-.2-2.1.2-1 1-1.6-.2.4 0 .9.2.4.7.5-.5-.3-.5-.9 0-.6.4-1-.4 1.2.4 1.6.8.4 2.3.2l3.3-.3 4.6-.6 1.4-2 1-1.5.6-1 .7-1q.5-.6 1.3-1l1.8-.8-.5 1-.8 1.2-.6 1.2-.6 1 .8-1.2 1-1.5 1.2-1.8h.4l-.5 1-.5.9 1-1.4q.5-.6 1.1-.7 1.7-.3 3 0 1.2.4 1 .8l-.7 1.2-1.2 1.6-1.2 1.7-1 1.3 5.5-.7 3-.2zm-28.5 3.6q0 1.2 2 1.5 2 .3 6.5-.6-2.8.5-4.5.5-1.7 0-2.5-.2-.9-.2-1.2-.6l-.3-.6zm2.4 25.6q.8-3 2.2-5.8 1.3-2.8 2.6-5.1l2.3-4 1.4-1.9q-.5.3-1.3 1.4l-1.8 2.8h-.3q0-.3.8-1.5l1.8-3 2-3q1.1-1.6 1.8-2.2-.5.2-1.4 1.3-1 1-2.3 3h-.2l-.2.2-.1.1v.8l-.2.1v.2q0 .3-.3 0h-.2l.1.2v.2h.1-.5v1h-.6q0 .2-.2.2l.2.6h-.3q-.1-.1-.4 0l-.2.5v.5l-2.2 4q-1 2.1-1.7 4.4l1.4-2.9.7-1.3.3.4-2.2 4.8q-.9 2.5-1.1 4.1zm2.2-4.7l2.3-4.6 3.2-5.3 3-4.7 2-2.9q-.3 0-1.1 1l-2 2.8-2.2 3.7-2.3 4.1-1.9 3.5-1 2.4zm17.2 2l1.3-.1 2-.1h2l1.4-.1-1.5 3-1.3 2.3q-2 0-3.5-.5-1.5-.4-2-1l1.6-3.5zm23-44.4q.5 0 1.5.4t1.9 1q1 .6 1.6 1.4.7.7.7 1.4l-1.4 2.4-2.7 5-3.6 6.6-4.3 7.7-4.3 8-4 7.3h-1.4l-2 .2h-2.1l-1.5.1 3-6.5 3.8-7.6 4.1-8 4-7.8 3.7-6.7 3-5zm-.9 6q-.3 0-1.6 2.1l-3 5.4-3.7 7-3.6 7.4-3 6.3-1.5 3.8 1.5-2.7 2.9-5.3 3.6-6.8q2-3.6 3.6-7 1.8-3.3 3-6 1.4-2.8 1.8-4.1zm-.9 5.4l-1.1 2-2 3.6-2.4 4.5-2.4 4.5-1.9 4-1 2.3 1-1.7 2-3.5 2.3-4.4 2.4-4.6 2-4 1-2.6zm-13.3 28l1.3-2.5 2.7-4.8 3.3-6.1 3.3-6.4 2.7-5.6q1.3-2.5 1.7-3.7l-1.6 2.7-2.7 5-3.3 6.3-3.4 6.5-2.6 5.3q-1.1 2.3-1.4 3.3z" style="-inkscape-font-specification:'Shania&amp;Heinz_PersonalUseOnly, Normal';font-variant-ligatures:normal;font-variant-caps:normal;font-variant-numeric:normal;font-feature-settings:normal;text-align:start"/></g><path fill="#ffc106" d="M253.6 91.5s-1-2.5-2.1-1.8c-1 .7.5 4 1.8 4 1.4 0 3.6-2.6 2.4-3.7-.8-.8-2.4.9-2.4 3.8m-4.6-5.7c-.1 0-.2.2-.1.3 0 .3.2.4.4.5.4.2.6.5.8.9 0 .1.3 0 .2-.1-.1-.6-.5-1.8-1.3-1.6M256 93c-.3 0-.4.7 0 .7.5 0 .5-.6 0-.7m1.6-1.2l-.4.3c-.2.1-.2.3-.3.5 0 0 0 .2.2.2l.4-.1.4-.2c.5-.1.1-1-.3-.7M212.5 89l1.6-.4 1.8-.2 2.4-.3 2.8-.3 3.2-.2h10.3l3.4.3 3 .5 2.9.5 2.3.6 1.7.6 1.5.6.1.1c0 .1 0 .2-.2.1l-1.5-.4c-.5-.2-1-.4-1.7-.5l-2.4-.5a7603.5 7603.5 0 0 1-5.8-.8l-3.4-.2-3.4-.2h-3.5a5915.7 5915.7 0 0 1-3.3.1l-3.1.2-2.8.1a3101.2 3101.2 0 0 1-4.2.4l-1.6.1-.2-.1.1-.2m83.2.3l-1.6-.1-1.9-.2-2.3-.2-2.8-.1-3.2-.2h-10.2l-3.3.3-3.1.3-2.8.5-2.3.5-1.8.5-1.5.4a.1.1 0 0 1 0-.2l1.4-.6 1.8-.6 2.3-.6 2.8-.5 3-.5c1.2 0 2.3-.2 3.5-.3l3.4-.1h5.2l1.7.1 3.1.2 2.8.3c.9 0 1.7.2 2.4.3a96.6 96.6 0 0 1 3.5.7l-.1.1m-38.2-.3l.2-.1.3-.3a17.7 17.7 0 0 1 2.2-1.6l1-.5 1.2-.6 1.3-.5 1.2-.5a16 16 0 0 1 2.4-.6l1.1-.1 1-.1h1.2a.2.2 0 0 1 0 .4h-.6l-.7.1-.9.2-1 .2a13 13 0 0 0-2.3.7l-1.2.5-1.2.5-1.2.5-1 .5-1 .5-.8.4-.6.3-.5.3h-.2v-.2m-7.1 3.9l-.6-.1a36.7 36.7 0 0 0-2.5-.4h-1.1l-1.2-.2h-2.5a16 16 0 0 0-2.3 0l-1 .2-.8.1-.7.1-.6.1a.3.3 0 0 1-.1-.5l.6-.2a336.5 336.5 0 0 0 2.5-.5l1.2-.1 1.2-.1h2.6l1.2.2 1.1.2 1 .3 1.5.4.6.2a.2.2 0 0 1-.1.3"/></svg>