<?xml version="1.0" encoding="utf-8"?>
<!-- Generator: Adobe Illustrator 17.0.0, SVG Export Plug-In . SVG Version: 6.00 Build 0)  -->
<!DOCTYPE svg PUBLIC "-//W3C//DTD SVG 1.1//EN" "http://www.w3.org/Graphics/SVG/1.1/DTD/svg11.dtd">
<svg version="1.1" id="Layer_1" xmlns="http://www.w3.org/2000/svg" xmlns:xlink="http://www.w3.org/1999/xlink" x="0px" y="0px"
	 width="291.091px" height="303.095px" viewBox="0 0 291.091 303.095" enable-background="new 0 0 291.091 303.095"
	 xml:space="preserve">
<g>
	<g>
		<path fill="#333333" stroke="#000000" stroke-miterlimit="10" d="M277.748,148.699l-11.343-7.021
			c-0.095-1.105-0.204-2.207-0.323-3.304l9.748-9.092c0.991-0.924,1.435-2.292,1.167-3.617c-0.261-1.329-1.193-2.424-2.46-2.896
			l-12.461-4.66c-0.312-1.079-0.64-2.15-0.976-3.216l7.773-10.796c0.793-1.097,0.955-2.525,0.439-3.777
			c-0.516-1.247-1.644-2.14-2.979-2.359l-13.139-2.138c-0.511-0.996-1.043-1.977-1.58-2.951l5.522-12.12
			c0.565-1.234,0.449-2.669-0.305-3.79c-0.751-1.125-2.024-1.784-3.382-1.732l-13.336,0.465c-0.689-0.862-1.391-1.717-2.106-2.556
			l3.064-12.99c0.31-1.319-0.08-2.7-1.04-3.658c-0.953-0.955-2.336-1.35-3.655-1.04l-12.987,3.062
			c-0.842-0.713-1.696-1.417-2.561-2.107l0.467-13.336c0.052-1.35-0.607-2.633-1.732-3.382c-1.128-0.754-2.556-0.867-3.787-0.307
			l-12.117,5.524c-0.978-0.537-1.959-1.069-2.951-1.582l-2.143-13.142c-0.217-1.332-1.11-2.463-2.359-2.979
			c-1.247-0.519-2.677-0.351-3.774,0.439l-10.803,7.773c-1.064-0.338-2.132-0.663-3.211-0.973l-4.66-12.463
			c-0.472-1.27-1.567-2.202-2.896-2.465c-1.327-0.261-2.692,0.181-3.614,1.167l-9.092,9.755c-1.097-0.121-2.202-0.232-3.304-0.323
			l-7.021-11.345c-0.71-1.149-1.967-1.848-3.32-1.848s-2.61,0.7-3.317,1.848l-7.022,11.345c-1.105,0.09-2.21,0.201-3.307,0.323
			l-9.094-9.755c-0.922-0.986-2.29-1.427-3.614-1.167c-1.329,0.266-2.424,1.195-2.896,2.465l-4.66,12.463
			c-1.079,0.31-2.148,0.638-3.214,0.973l-10.801-7.773c-1.097-0.792-2.527-0.96-3.777-0.439c-1.247,0.516-2.143,1.647-2.359,2.979
			l-2.143,13.142c-0.991,0.514-1.972,1.043-2.951,1.582l-12.117-5.524c-1.231-0.563-2.667-0.447-3.787,0.307
			c-1.125,0.749-1.784,2.032-1.732,3.382l0.465,13.336c-0.862,0.689-1.717,1.394-2.561,2.106l-12.987-3.062
			c-1.319-0.307-2.703,0.085-3.658,1.04c-0.96,0.958-1.35,2.339-1.04,3.658l3.059,12.99c-0.71,0.842-1.412,1.693-2.101,2.556
			l-13.336-0.465c-1.345-0.039-2.63,0.607-3.382,1.732c-0.754,1.12-0.867,2.556-0.307,3.79l5.524,12.12
			c-0.537,0.973-1.069,1.954-1.582,2.951l-13.139,2.137c-1.335,0.217-2.46,1.11-2.979,2.359c-0.516,1.252-0.349,2.679,0.439,3.777
			l7.773,10.795c-0.338,1.066-0.666,2.138-0.976,3.216l-12.463,4.66c-1.265,0.472-2.197,1.567-2.46,2.896
			c-0.263,1.327,0.178,2.692,1.167,3.617l9.75,9.092c-0.121,1.097-0.23,2.202-0.323,3.304l-11.343,7.022
			c-1.149,0.71-1.848,1.964-1.848,3.32s0.699,2.61,1.848,3.317l11.343,7.022c0.093,1.105,0.201,2.207,0.323,3.304l-9.75,9.094
			c-0.989,0.922-1.43,2.29-1.167,3.614c0.263,1.329,1.195,2.421,2.46,2.896l12.463,4.66c0.31,1.079,0.638,2.15,0.976,3.216
			l-7.773,10.798c-0.79,1.1-0.958,2.527-0.439,3.774c0.519,1.252,1.647,2.145,2.982,2.359l13.137,2.137
			c0.514,0.996,1.04,1.977,1.582,2.956l-5.524,12.115c-0.563,1.231-0.447,2.664,0.307,3.79c0.754,1.128,2.037,1.786,3.382,1.732
			l13.331-0.467c0.694,0.867,1.394,1.717,2.106,2.561l-3.059,12.992c-0.31,1.316,0.08,2.692,1.04,3.65
			c0.953,0.963,2.339,1.347,3.658,1.038l12.987-3.059c0.844,0.718,1.699,1.415,2.561,2.101l-0.465,13.338
			c-0.052,1.35,0.607,2.63,1.732,3.384c1.12,0.751,2.556,0.865,3.787,0.302l12.117-5.522c0.976,0.542,1.957,1.069,2.951,1.582
			l2.143,13.134c0.217,1.337,1.11,2.468,2.359,2.982c1.247,0.519,2.679,0.351,3.777-0.436l10.796-7.778
			c1.066,0.338,2.137,0.669,3.216,0.978l4.659,12.458c0.473,1.265,1.567,2.202,2.896,2.46c1.327,0.268,2.692-0.176,3.614-1.167
			l9.094-9.75c1.097,0.127,2.202,0.232,3.307,0.33l7.022,11.343c0.707,1.144,1.964,1.848,3.317,1.848c1.353,0,2.61-0.702,3.32-1.848
			l7.021-11.343c1.105-0.098,2.207-0.204,3.304-0.33l9.092,9.75c0.922,0.991,2.29,1.435,3.614,1.167
			c1.329-0.261,2.424-1.195,2.896-2.46l4.66-12.458c1.079-0.31,2.15-0.64,3.216-0.978l10.798,7.778
			c1.097,0.787,2.527,0.955,3.774,0.436c1.249-0.514,2.143-1.647,2.359-2.982l2.143-13.134c0.991-0.514,1.972-1.048,2.951-1.582
			l12.117,5.522c1.231,0.563,2.664,0.449,3.787-0.302c1.125-0.754,1.781-2.032,1.732-3.384l-0.465-13.338
			c0.862-0.689,1.717-1.384,2.558-2.101l12.987,3.059c1.319,0.31,2.703-0.075,3.655-1.038c0.96-0.958,1.35-2.334,1.04-3.65
			l-3.059-12.992c0.712-0.844,1.415-1.693,2.101-2.561l13.336,0.467c1.345,0.054,2.63-0.604,3.382-1.732
			c0.754-1.125,0.87-2.558,0.305-3.79l-5.522-12.115c0.54-0.978,1.069-1.959,1.58-2.956l13.139-2.138
			c1.337-0.214,2.463-1.107,2.979-2.359c0.516-1.247,0.354-2.674-0.439-3.774l-7.773-10.798c0.336-1.066,0.663-2.137,0.976-3.216
			l12.461-4.66c1.268-0.475,2.202-1.567,2.46-2.896c0.268-1.327-0.176-2.692-1.167-3.614l-9.747-9.094
			c0.119-1.097,0.227-2.202,0.323-3.304l11.343-7.021c1.149-0.707,1.848-1.964,1.848-3.317S278.897,149.409,277.748,148.699z
			 M138.542,43.036c3.201-3.067,8.279-2.945,11.343,0.261c3.059,3.214,2.943,8.297-0.266,11.361
			c-3.201,3.067-8.279,2.948-11.343-0.263C135.219,51.186,135.336,46.103,138.542,43.036z M86.325,242.403
			c-4.332,0.935-8.596-1.828-9.528-6.167c-0.927-4.347,1.828-8.614,6.159-9.549c4.332-0.927,8.599,1.835,9.528,6.175
			C93.411,237.198,90.654,241.473,86.325,242.403z M211.359,236.62c-0.929,4.337-5.199,7.101-9.528,6.175
			c-4.332-0.935-7.086-5.204-6.157-9.549c0.927-4.339,5.194-7.101,9.523-6.167C209.529,228.006,212.288,232.283,211.359,236.62z
			 M159.286,61.141c43.37,7.269,76.427,44.962,76.427,90.398c0,50.636-41.049,91.686-91.686,91.686s-91.686-41.049-91.686-91.686
			c0-45.914,33.75-83.944,77.795-90.638 M247.119,125.128c-1.794,4.058-6.534,5.888-10.586,4.089
			c-4.045-1.797-5.873-6.544-4.079-10.605c1.794-4.055,6.534-5.886,10.584-4.086C247.088,116.323,248.916,121.073,247.119,125.128z"
			/>
		<path fill="#333333" stroke="#000000" stroke-miterlimit="10" d="M126.375,59.375l12.716,10.494
			c2.793,3.415,7.419,3.542,10.341,0.277L162.5,59.875"/>
	</g>
	<path fill="#333333" stroke="#000000" stroke-miterlimit="10" d="M51.083,141.083l14.04-4.756c4.154-1.485,5.825-5.801,3.731-9.649
		l-9.312-17.112"/>
	<path fill="#333333" stroke="#000000" stroke-miterlimit="10" d="M226.763,107.321l-10.465,16.296
		c-2.381,3.714-1.066,8.151,2.943,9.917l17.828,7.855"/>
	<path fill="#333333" stroke="#000000" stroke-miterlimit="10" d="M213.018,215.848l-18.796-4.667
		c-4.283-1.059-8.061,1.612-8.443,5.977l-1.702,19.407"/>
	<path fill="#333333" stroke="#000000" stroke-miterlimit="10" d="M104.015,238.862l0.138-19.367c0.027-4.412-3.454-7.46-7.787-6.81
		L77.1,215.572"/>
</g>
<path id="path1948_1_" fill="#686868" stroke="#000000" stroke-miterlimit="10" d="M142.436,93.395
	c-4.872,0.023-9.524,0.438-13.617,1.162c-12.058,2.131-14.248,6.59-14.248,14.813v10.86h28.496v3.62H114.57h-10.694
	c-8.281,0-15.533,4.978-17.802,14.447c-2.617,10.854-2.733,17.628,0,28.962c2.026,8.436,6.864,14.447,15.145,14.447h9.798v-13.019
	c0-9.406,8.138-17.703,17.802-17.703h28.463c7.923,0,14.248-6.523,14.248-14.481V109.37c0-7.722-6.515-13.524-14.248-14.813
	C152.387,93.742,147.307,93.372,142.436,93.395z M127.025,102.13c2.943,0,5.347,2.443,5.347,5.447c0,2.993-2.404,5.414-5.347,5.414
	c-2.954,0-5.347-2.42-5.347-5.414C121.678,104.573,124.071,102.13,127.025,102.13z"/>
<path id="path1950_1_" fill="#C4C4C3" stroke="#000000" stroke-miterlimit="10" d="M175.083,123.851v12.654
	c0,9.811-8.318,18.068-17.802,18.068h-28.463c-7.797,0-14.248,6.673-14.248,14.481v27.135c0,7.722,6.715,12.266,14.248,14.481
	c9.02,2.653,17.67,3.132,28.463,0c7.174-2.078,14.248-6.259,14.248-14.481v-10.861h-28.463v-3.62h28.463h14.248
	c8.282,0,11.368-5.777,14.248-14.447c2.976-8.926,2.849-17.511,0-28.962c-2.047-8.244-5.955-14.447-14.248-14.447H175.083z
	 M159.075,192.568c2.954,0,5.347,2.42,5.347,5.414c0,3.004-2.393,5.447-5.347,5.447c-2.943,0-5.347-2.443-5.347-5.447
	C153.728,194.988,156.132,192.568,159.075,192.568z"/>
<radialGradient id="path1894_2_" cx="-53.5895" cy="396.947" r="29.0375" gradientTransform="matrix(0 -0.2399 -1.0547 0 564.5256 212.2381)" gradientUnits="userSpaceOnUse">
	<stop  offset="0" style="stop-color:#B9B9B9;stop-opacity:0.498"/>
	<stop  offset="1" style="stop-color:#808080;stop-opacity:0"/>
</radialGradient>
<path id="path1894_1_" opacity="0.4438" fill="url(#path1894_2_)" enable-background="new    " d="M181.797,225.094
	c0,3.848-16.087,6.967-35.931,6.967c-19.845,0-35.932-3.119-35.932-6.967c0-3.848,16.087-6.967,35.932-6.967
	C165.71,218.127,181.797,221.247,181.797,225.094L181.797,225.094z"/>
<path fill="#FFFFFF" stroke="#000000" stroke-miterlimit="10" d="M50.453,129.825c-4.05,1.799-8.79-0.031-10.586-4.089
	c-1.797-4.058,0.031-8.803,4.081-10.602c4.053-1.797,8.79,0.031,10.586,4.089C56.331,123.278,54.504,128.031,50.453,129.825z"/>
</svg>
